<svg version="1.1" id="Layer_1" xmlns="http://www.w3.org/2000/svg" xmlns:xlink="http://www.w3.org/1999/xlink" x="0px" y="0px"
	 width="100%" viewBox="0 0 1108 1080" enable-background="new 0 0 1108 1080" xml:space="preserve">
<path fill="none" opacity="1.000000" stroke="none" 
	d="
M550.000000,1.000000 
	C736.314392,1.000000 922.628845,1.000000 1108.971680,1.000000 
	C1108.971680,360.944550 1108.971680,720.889099 1108.971680,1080.916748 
	C739.759644,1080.916748 370.519226,1080.916748 1.139420,1080.916748 
	C1.139420,721.000061 1.139420,361.000031 1.139420,1.000000 
	C74.103691,1.000000 147.095901,1.000000 220.588043,1.367911 
	C222.829773,2.793384 224.466202,4.480024 226.332764,4.792623 
	C232.352142,5.800717 238.455444,6.901850 244.527847,6.910193 
	C338.137604,7.038810 431.747620,6.990166 525.357544,7.045312 
	C528.304749,7.047048 531.251587,7.718328 534.128296,8.320158 
	C534.038147,8.730312 534.018372,8.897780 533.550598,9.128730 
	C529.299988,9.488088 525.493530,9.742786 521.695251,10.086958 
	C505.187653,11.582746 488.568481,12.332378 472.195618,14.747818 
	C392.244324,26.542805 318.911224,55.583778 252.319687,101.277351 
	C166.070663,160.459412 101.408646,237.985184 62.677280,335.109436 
	C-2.444804,498.412048 9.716931,657.068787 98.194221,809.166199 
	C129.672287,863.278748 171.065445,909.243591 219.922806,948.443665 
	C290.674652,1005.210510 370.808990,1041.346069 460.066193,1056.982422 
	C522.706299,1067.955933 585.452942,1067.612549 648.012146,1055.991211 
	C741.898621,1038.550537 825.028320,998.473572 897.209534,936.026672 
	C953.022705,887.740356 997.139160,830.309937 1028.687378,763.515015 
	C1080.963867,652.833496 1093.311768,537.450317 1066.345337,418.312988 
	C1043.415283,317.007233 993.699097,230.212112 919.208862,157.797684 
	C865.527832,105.612625 803.353149,66.820892 733.090942,40.901234 
	C702.817993,29.733578 671.699890,21.927753 639.766846,15.878092 
	C638.827942,15.645188 638.141602,15.679306 637.107788,15.677212 
	C635.845337,15.466373 634.930237,15.291746 633.880615,14.893792 
	C633.169067,14.736494 632.592224,14.802523 631.654297,14.865576 
	C629.867920,14.619013 628.442505,14.375426 626.881592,13.908465 
	C626.168518,13.751489 625.590942,13.817887 624.602356,13.877533 
	C619.797363,13.271689 615.403381,12.672601 610.875671,11.850477 
	C610.167114,11.701344 609.592407,11.775246 608.627625,11.853164 
	C606.162659,11.603253 604.087646,11.349325 601.832886,10.855744 
	C600.774902,10.692719 599.896667,10.769346 598.609863,10.859993 
	C595.471252,10.610310 592.741150,10.346608 589.796997,9.836984 
	C588.393005,9.689821 587.203125,9.788583 585.578064,9.915287 
	C579.765625,9.656473 574.388489,9.369716 568.710205,8.795887 
	C565.094849,8.548782 561.780518,8.588748 558.039429,8.654844 
	C552.724487,8.688235 547.836426,8.695495 542.658325,8.450673 
	C540.244324,8.140224 538.120300,8.081855 536.078613,7.637547 
	C537.769348,6.833127 539.383972,6.437461 540.984558,5.991450 
	C544.383179,5.044419 548.688171,5.719677 550.000000,1.000000 
z"/>
<path fill="#F8F8F8" opacity="1.000000" stroke="none" 
	d="
M534.198608,8.077475 
	C531.251587,7.718328 528.304749,7.047048 525.357544,7.045312 
	C431.747620,6.990166 338.137604,7.038810 244.527847,6.910193 
	C238.455444,6.901850 232.352142,5.800717 226.332764,4.792623 
	C224.466202,4.480024 222.829773,2.793384 221.043976,1.367911 
	C330.354218,1.000000 439.708466,1.000000 549.531372,1.000000 
	C548.688171,5.719677 544.383179,5.044419 540.984558,5.991450 
	C539.383972,6.437461 537.769348,6.833127 535.778809,7.668335 
	C534.997253,8.082534 534.597961,8.080005 534.198608,8.077475 
z"/>
<path fill="#2E1E8F" opacity="1.000000" stroke="none" 
	d="
M602.012695,11.095400 
	C604.087646,11.349325 606.162659,11.603253 608.765930,12.040026 
	C609.865967,12.173083 610.437744,12.123297 611.009460,12.073510 
	C615.403381,12.672601 619.797363,13.271689 624.742249,14.062589 
	C625.867859,14.213546 626.442505,14.172693 627.017151,14.131840 
	C628.442505,14.375426 629.867920,14.619013 631.792847,15.051617 
	C632.866699,15.199465 633.440979,15.158295 634.015198,15.117123 
	C634.930237,15.291746 635.845337,15.466373 637.264954,15.862104 
	C638.519531,16.103842 639.269470,16.124477 640.019470,16.145111 
	C671.699890,21.927753 702.817993,29.733578 733.090942,40.901234 
	C803.353149,66.820892 865.527832,105.612625 919.208862,157.797684 
	C993.699097,230.212112 1043.415283,317.007233 1066.345337,418.312988 
	C1093.311768,537.450317 1080.963867,652.833496 1028.687378,763.515015 
	C997.139160,830.309937 953.022705,887.740356 897.209534,936.026672 
	C825.028320,998.473572 741.898621,1038.550537 648.012146,1055.991211 
	C585.452942,1067.612549 522.706299,1067.955933 460.066193,1056.982422 
	C370.808990,1041.346069 290.674652,1005.210510 219.922806,948.443665 
	C171.065445,909.243591 129.672287,863.278748 98.194221,809.166199 
	C9.716931,657.068787 -2.444804,498.412048 62.677280,335.109436 
	C101.408646,237.985184 166.070663,160.459412 252.319687,101.277351 
	C318.911224,55.583778 392.244324,26.542805 472.195618,14.747818 
	C488.568481,12.332378 505.187653,11.582746 521.695251,10.086958 
	C525.493530,9.742786 529.299988,9.488088 533.886841,9.308320 
	C537.430054,9.183870 540.189209,8.943313 542.948303,8.702755 
	C547.836426,8.695495 552.724487,8.688235 558.323364,8.892869 
	C562.359863,9.097493 565.685608,9.090226 569.011292,9.082958 
	C574.388489,9.369716 579.765625,9.656473 585.811157,10.109890 
	C587.656677,10.212002 588.833862,10.147453 590.011108,10.082907 
	C592.741150,10.346608 595.471252,10.610310 598.800415,11.057086 
	C600.270569,11.191908 601.141663,11.143654 602.012695,11.095400 
M583.019470,998.374207 
	C639.616943,994.376221 693.857117,980.937744 745.360535,957.084656 
	C828.751526,918.463440 895.782104,860.668335 944.395691,782.673950 
	C1017.502197,665.383789 1035.672607,539.144897 998.093750,406.444824 
	C965.132385,290.050629 894.778992,200.656555 791.712219,137.267044 
	C747.334961,109.973534 699.449036,91.174553 648.480042,80.422409 
	C579.779358,65.929703 511.166534,66.480568 442.861938,82.928276 
	C342.855530,107.009773 259.807007,158.924515 193.678726,237.419876 
	C140.929047,300.034668 107.602158,372.116913 93.066658,452.757202 
	C82.323708,512.357178 82.588692,572.002075 95.949844,631.033875 
	C129.534424,779.416138 215.274643,887.422119 351.480652,954.633606 
	C424.006256,990.421570 501.440430,1003.726196 583.019470,998.374207 
z"/>
<path fill="#BEB9DC" opacity="1.000000" stroke="none" 
	d="
M568.710205,8.795888 
	C565.685608,9.090226 562.359863,9.097493 558.750183,8.866737 
	C561.780518,8.588748 565.094849,8.548782 568.710205,8.795888 
z"/>
<path fill="#BEB9DC" opacity="1.000000" stroke="none" 
	d="
M542.658325,8.450674 
	C540.189209,8.943313 537.430054,9.183870 534.334717,9.244838 
	C534.018372,8.897780 534.038147,8.730312 534.128296,8.320160 
	C534.597961,8.080005 534.997253,8.082534 535.696411,8.054276 
	C538.120300,8.081855 540.244324,8.140224 542.658325,8.450674 
z"/>
<path fill="#BEB9DC" opacity="1.000000" stroke="none" 
	d="
M589.796997,9.836983 
	C588.833862,10.147453 587.656677,10.212002 586.246338,10.081946 
	C587.203125,9.788583 588.393005,9.689821 589.796997,9.836983 
z"/>
<path fill="#BEB9DC" opacity="1.000000" stroke="none" 
	d="
M601.832886,10.855745 
	C601.141663,11.143654 600.270569,11.191908 599.208984,11.043068 
	C599.896667,10.769346 600.774902,10.692719 601.832886,10.855745 
z"/>
<path fill="#BEB9DC" opacity="1.000000" stroke="none" 
	d="
M626.881592,13.908466 
	C626.442505,14.172693 625.867859,14.213546 625.153320,14.069342 
	C625.590942,13.817887 626.168518,13.751489 626.881592,13.908466 
z"/>
<path fill="#BEB9DC" opacity="1.000000" stroke="none" 
	d="
M633.880615,14.893795 
	C633.440979,15.158295 632.866699,15.199465 632.153931,15.054592 
	C632.592224,14.802523 633.169067,14.736494 633.880615,14.893795 
z"/>
<path fill="#BEB9DC" opacity="1.000000" stroke="none" 
	d="
M639.766846,15.878092 
	C639.269470,16.124477 638.519531,16.103842 637.612427,15.898315 
	C638.141602,15.679306 638.827942,15.645188 639.766846,15.878092 
z"/>
<path fill="#BEB9DC" opacity="1.000000" stroke="none" 
	d="
M610.875671,11.850477 
	C610.437744,12.123297 609.865967,12.173083 609.155945,12.036009 
	C609.592407,11.775246 610.167114,11.701344 610.875671,11.850477 
z"/>
<path fill="#F7F7FB" opacity="1.000000" stroke="none" 
	d="
M582.553955,998.416992 
	C501.440430,1003.726196 424.006256,990.421570 351.480652,954.633606 
	C215.274643,887.422119 129.534424,779.416138 95.949844,631.033875 
	C82.588692,572.002075 82.323708,512.357178 93.066658,452.757202 
	C107.602158,372.116913 140.929047,300.034668 193.678726,237.419876 
	C259.807007,158.924515 342.855530,107.009773 442.861938,82.928276 
	C511.166534,66.480568 579.779358,65.929703 648.480042,80.422409 
	C699.449036,91.174553 747.334961,109.973534 791.712219,137.267044 
	C894.778992,200.656555 965.132385,290.050629 998.093750,406.444824 
	C1035.672607,539.144897 1017.502197,665.383789 944.395691,782.673950 
	C895.782104,860.668335 828.751526,918.463440 745.360535,957.084656 
	C693.857117,980.937744 639.616943,994.376221 582.553955,998.416992 
M512.254395,87.615295 
	C469.709503,91.427063 428.385315,100.554306 388.581085,116.193230 
	C298.655884,151.524460 226.287369,209.160522 173.945282,290.222565 
	C100.962082,403.251434 82.388733,525.865723 117.133430,655.678406 
	C142.551086,750.643555 195.046860,828.841309 272.684418,889.040466 
	C379.092834,971.548096 499.533203,1001.217163 632.124634,977.938660 
	C730.373352,960.689636 813.301086,914.068176 881.510681,841.389526 
	C914.275146,806.478333 940.685303,767.152222 960.463379,723.544617 
	C1005.504944,624.234558 1014.109741,521.568359 985.161865,416.594849 
	C955.100098,307.581940 891.589294,221.869507 797.405884,159.601639 
	C711.275146,102.657707 615.969299,79.782776 512.254395,87.615295 
z"/>
<path fill="#2D1D8F" opacity="1.000000" stroke="none" 
	d="
M512.710938,87.563042 
	C615.969299,79.782776 711.275146,102.657707 797.405884,159.601639 
	C891.589294,221.869507 955.100098,307.581940 985.161865,416.594849 
	C1014.109741,521.568359 1005.504944,624.234558 960.463379,723.544617 
	C940.685303,767.152222 914.275146,806.478333 881.510681,841.389526 
	C813.301086,914.068176 730.373352,960.689636 632.124634,977.938660 
	C499.533203,1001.217163 379.092834,971.548096 272.684418,889.040466 
	C195.046860,828.841309 142.551086,750.643555 117.133430,655.678406 
	C82.388733,525.865723 100.962082,403.251434 173.945282,290.222565 
	C226.287369,209.160522 298.655884,151.524460 388.581085,116.193230 
	C428.385315,100.554306 469.709503,91.427063 512.710938,87.563042 
M642.011841,585.995605 
	C642.011841,585.995605 642.036316,586.025879 642.703918,586.043518 
	C642.596252,584.995056 642.488586,583.946594 641.923096,582.452148 
	C640.945251,581.644348 639.967407,580.836487 638.939453,579.114563 
	C638.856018,577.588867 638.772583,576.063232 638.921753,573.946045 
	C640.462158,572.526794 642.002563,571.107605 644.237610,569.848938 
	C650.161926,567.940979 643.625305,566.639954 644.264465,564.573975 
	C644.548035,564.402954 644.831543,564.231995 645.770020,564.095276 
	C646.424316,564.089111 647.078674,564.082886 648.158691,564.695129 
	C649.707214,564.171692 651.914246,564.110107 652.670837,563.031311 
	C654.389954,560.579895 655.395996,557.628479 657.119934,554.474548 
	C657.371216,554.172485 657.622498,553.870361 658.408142,553.975403 
	C659.096008,554.753540 659.783813,555.531616 660.471680,556.309753 
	C661.102539,555.655090 661.733398,555.000488 662.857971,553.908264 
	C665.046997,552.090393 667.236023,550.272522 669.959595,548.129883 
	C670.083130,547.358521 670.206665,546.587097 670.738770,545.257446 
	C671.818970,544.490295 672.899231,543.723083 674.614014,543.000000 
	C675.010742,542.296387 675.407471,541.592773 676.436401,540.735229 
	C677.141418,539.996338 677.846436,539.257446 679.145020,538.054382 
	C683.190308,537.671265 682.873291,534.712036 683.708862,531.415527 
	C684.321594,531.548096 684.934326,531.680603 685.421692,532.399353 
	C685.555847,532.768555 685.689941,533.137695 685.824097,533.506836 
	C686.059509,533.362793 686.294922,533.218811 686.530396,533.074829 
	C686.174683,532.667419 685.818970,532.260010 685.304871,530.975464 
	C685.468506,530.727478 685.632202,530.479553 686.356995,530.474487 
	C687.028381,530.088928 687.699829,529.703308 689.043579,529.162964 
	C693.507019,524.930237 697.970459,520.697510 702.995300,516.074341 
	C703.470764,514.324158 703.946289,512.573975 704.850464,510.230713 
	C707.679626,508.618958 710.508728,507.007202 713.916382,505.048859 
	C714.072327,503.971619 714.228333,502.894348 714.874512,501.304199 
	C717.605530,499.235809 720.336548,497.167419 723.661865,494.951599 
	C724.053589,494.276794 724.445374,493.601990 725.402710,492.468506 
	C726.278503,491.702393 727.901184,490.945343 727.910645,490.168762 
	C727.978699,484.548187 732.851318,483.908691 736.184265,481.542694 
	C738.355652,480.001251 740.303223,477.963379 741.884583,475.805939 
	C746.550537,469.439819 751.004639,462.917603 755.498901,456.426880 
	C757.260498,453.882812 762.322937,452.971588 759.660461,448.150757 
	C759.547791,447.946564 760.112061,447.309052 760.432190,446.934235 
	C765.174927,441.381134 769.984924,435.884247 774.648987,430.266083 
	C776.118286,428.496246 777.472107,426.528442 778.410400,424.440735 
	C780.537476,419.708038 782.269104,414.798157 784.377625,410.056396 
	C785.245483,408.104645 786.412231,406.145874 787.899841,404.642151 
	C790.177246,402.340179 793.763794,400.790619 790.515198,396.651031 
	C790.253479,396.317505 791.315125,394.656219 792.046326,393.879883 
	C796.568054,389.078400 796.940979,386.190033 794.287659,380.157166 
	C792.940979,377.095245 790.802124,373.532776 796.159485,371.642487 
	C796.922424,371.373260 797.728760,369.736206 797.645630,368.810242 
	C797.217896,364.042694 796.506470,359.300629 795.924316,354.783844 
	C793.662170,355.435730 791.862488,355.954376 790.062744,356.472992 
	C794.431274,350.363831 794.380737,347.081604 789.630920,341.342133 
	C789.013184,340.595734 788.501038,339.677979 788.213806,338.754456 
	C783.231628,322.734619 773.735168,309.165588 764.134888,295.805603 
	C759.364441,289.166809 753.271545,283.302734 747.047180,277.934296 
	C740.986206,272.706696 734.028442,268.508728 727.403503,263.947113 
	C711.459595,252.968887 693.763855,245.917282 675.197571,240.864166 
	C653.921753,235.073639 632.264404,238.698944 610.793823,238.661011 
	C600.204102,238.642288 589.453674,240.202316 579.054993,242.380310 
	C563.277344,245.684906 547.596497,249.658905 532.145691,254.259384 
	C516.381287,258.953247 501.411774,266.192810 485.001251,268.954407 
	C482.582489,269.361420 480.433228,271.409821 478.176697,272.728577 
	C476.213562,273.875824 474.304840,275.988464 472.319733,276.052460 
	C467.518066,276.207275 465.999542,278.065063 467.488983,282.328278 
	C464.669952,282.957703 461.952209,283.182281 459.545135,284.166626 
	C447.689636,289.014496 435.902222,294.030396 424.130798,299.080383 
	C422.475922,299.790283 421.019928,300.982727 419.510437,302.008575 
	C416.634216,303.963226 413.804443,305.986450 410.922363,307.932251 
	C401.877777,314.038666 392.816742,320.120728 383.767426,326.220154 
	C383.364471,326.491730 383.016022,327.111725 382.638977,327.114349 
	C376.461884,327.157288 373.168335,331.024323 370.405945,335.893066 
	C369.741974,337.063354 368.079346,337.686829 366.839691,338.506866 
	C363.278809,340.862366 359.496643,342.936920 356.180756,345.595032 
	C352.419281,348.610413 349.097473,352.169830 345.533875,355.437469 
	C336.271362,363.930511 326.947693,372.357086 317.715820,380.883118 
	C312.979980,385.256866 308.033661,389.480042 303.834747,394.335358 
	C299.905457,398.878845 296.796875,404.139587 293.399719,409.134064 
	C288.094421,416.933960 282.495483,424.562836 277.653900,432.643402 
	C267.433868,449.700623 266.650696,466.852264 278.223724,483.822296 
	C288.527679,498.931458 302.176422,510.260529 318.486145,518.064148 
	C324.755310,521.063660 332.153961,520.910278 340.501465,518.677734 
	C338.896606,513.823181 337.462128,509.484009 336.073303,505.282898 
	C333.958130,505.282898 332.000092,505.893463 331.079254,505.174896 
	C327.509430,502.389313 324.201874,499.251617 320.921967,496.114075 
	C315.101715,490.546509 312.884277,483.653900 315.962280,476.207886 
	C319.701050,467.163452 324.195740,458.407715 328.773499,449.743744 
	C331.091309,445.357025 333.965637,441.145874 337.222046,437.407257 
	C340.390839,433.769135 344.439880,430.910522 347.960175,427.560150 
	C349.637207,425.964142 350.984100,424.021210 352.480530,422.235443 
	C353.317932,421.010712 355.126862,420.558502 356.347687,419.455444 
	C366.578491,410.211304 376.845428,400.997650 386.784668,391.445099 
	C390.674530,387.706512 393.937836,383.408356 396.951843,378.699646 
	C399.465881,374.771973 406.943024,374.277191 411.804230,371.524139 
	C416.700684,368.751160 420.978546,364.909363 425.718109,361.829224 
	C430.333466,358.829712 430.869720,354.670288 426.543945,350.619934 
	C444.873932,355.148926 456.732849,339.377075 472.753632,336.157715 
	C474.349976,343.517792 469.272705,350.606659 473.148773,357.531128 
	C473.281189,357.767731 472.656158,358.360779 472.518036,358.827332 
	C471.555450,362.078979 470.293488,365.286652 469.752594,368.610138 
	C468.165161,378.363251 466.843262,388.160126 465.473419,397.947723 
	C465.029053,401.122559 464.757751,404.321594 464.407288,407.509583 
	C464.412933,409.756958 463.150177,411.885223 462.657379,414.178925 
	C461.746887,418.416931 461.291199,422.752502 460.639404,427.046387 
	C459.878326,432.060181 459.045105,437.064026 458.361603,442.088318 
	C457.507812,448.364319 456.736176,454.652283 456.001404,460.943512 
	C455.393280,466.149902 454.888000,471.368378 454.340973,476.581879 
	C453.891174,480.868591 454.175598,485.416504 452.765320,489.358856 
	C451.675415,492.405792 450.145569,494.672852 453.659393,497.116302 
	C452.200226,498.325775 451.138672,499.205688 450.089539,500.075287 
	C452.548920,503.320374 452.764587,506.410156 450.690857,512.962158 
	C449.724670,516.014771 447.960144,518.775574 450.438812,522.040710 
	C450.870941,522.609985 449.700073,525.359558 448.640717,525.925964 
	C444.683563,528.041687 446.091858,529.911316 447.501923,533.123535 
	C448.644440,535.726379 448.489899,541.256836 446.880280,542.273254 
	C441.776489,545.495850 443.990662,547.564880 446.888550,550.132385 
	C441.441315,554.424622 441.231262,555.693970 444.903076,561.515259 
	C440.129120,565.975586 440.584106,566.319824 440.961151,572.829895 
	C441.358551,579.691650 439.980591,586.651306 440.314209,593.522766 
	C440.699432,601.457397 434.342224,607.745483 436.471649,616.463074 
	C437.959015,622.552185 435.656067,629.631592 434.740723,636.226196 
	C433.718903,643.588013 432.303436,650.894592 431.190216,658.245056 
	C431.035370,659.267700 431.629333,660.403687 431.877991,661.493164 
	C430.627350,662.042419 429.354309,662.601440 428.081268,663.160522 
	C427.794312,663.614136 427.507324,664.067749 427.220367,664.521362 
	C428.642029,665.009705 430.063690,665.498047 430.181885,665.538696 
	C428.969696,667.920349 427.342987,670.230103 427.687927,670.576538 
	C430.935150,673.837769 428.332886,677.098083 428.089264,680.333435 
	C427.932404,682.416748 427.313446,684.735962 427.981720,686.552002 
	C429.222015,689.922485 429.474976,692.854797 427.496674,695.997620 
	C425.583771,699.036499 424.143250,702.223694 425.603485,706.058350 
	C425.828644,706.649597 424.395172,707.951782 423.615570,708.823975 
	C422.845703,709.685303 421.932343,710.418335 420.613861,711.642029 
	C423.073242,711.861023 424.574890,711.994751 426.125122,712.132812 
	C425.013245,716.772949 424.597260,721.199219 422.839569,725.005981 
	C421.393341,728.138245 420.135529,730.412537 424.300781,732.676086 
	C422.415497,733.633423 421.150940,734.275574 419.347534,735.191284 
	C424.350006,738.890320 422.207336,742.427368 420.034607,746.255005 
	C419.058868,747.973999 418.829559,750.278564 418.801422,752.324890 
	C418.776611,754.127075 420.462585,756.755554 419.736145,757.609436 
	C416.177368,761.792236 417.676300,766.423950 417.695831,770.961609 
	C417.702026,772.400696 417.951660,774.181946 417.236359,775.216492 
	C415.087708,778.323914 414.779266,780.966675 418.808105,783.309082 
	C416.923676,784.198608 415.794830,784.731506 415.304962,784.962708 
	C416.192047,790.078979 417.032074,794.799622 417.792114,799.533142 
	C417.855896,799.930420 417.397736,800.422424 417.156433,800.856079 
	C413.541443,807.352966 414.794617,816.670715 418.788055,822.817505 
	C423.204346,829.615112 431.142487,830.813049 436.821381,835.521729 
	C438.586487,836.985352 441.797760,836.687805 444.336761,837.243286 
	C445.372101,837.469727 446.380859,837.818420 447.400787,838.114746 
	C448.786560,838.517334 450.147949,839.092773 451.562103,839.288696 
	C453.897278,839.612183 456.291656,839.984680 458.613098,839.783325 
	C460.546539,839.615601 462.614227,838.968079 464.229370,837.924683 
	C465.189484,837.304382 466.210846,834.843445 465.804749,834.340637 
	C461.299438,828.762024 462.754456,822.759460 464.219269,816.756104 
	C458.373291,814.368652 458.724457,803.550903 464.756195,796.473633 
	C464.216400,795.550049 463.151245,794.579712 463.239197,793.728516 
	C463.592285,790.310486 464.349121,786.936462 464.870667,783.533020 
	C465.876678,776.968384 468.492371,770.059692 460.713257,765.157959 
	C462.702789,763.307861 464.436707,761.695496 466.853516,759.886414 
	C467.370392,758.909485 468.182678,757.981689 468.354736,756.947449 
	C469.278809,751.393372 470.269104,745.833130 470.773041,740.233276 
	C471.045685,737.203491 470.394379,734.090576 470.156403,730.302002 
	C470.290375,729.604370 470.424347,728.906677 471.126343,728.019714 
	C472.471436,727.671021 473.816559,727.322327 475.608917,726.857666 
	C473.775360,725.685059 472.467865,724.848877 471.158356,723.298462 
	C471.294128,722.599976 471.429901,721.901550 472.111206,720.939453 
	C471.938873,719.555481 471.766510,718.171570 471.337372,716.050903 
	C471.402161,714.766052 471.466919,713.481262 472.150452,711.883179 
	C472.475800,706.925903 472.801147,701.968567 473.167847,696.388733 
	C473.279297,695.989502 473.390747,695.590210 474.044464,694.991516 
	C474.085358,693.999634 474.126251,693.007690 474.175903,691.391541 
	C474.271667,690.987793 474.367432,690.584106 475.040466,689.937866 
	C475.085999,688.630737 475.131500,687.323608 475.184418,685.301331 
	C475.337128,684.606140 475.489838,683.910950 476.155823,682.975647 
	C476.154602,681.988403 476.153381,681.001221 476.152679,679.298706 
	C476.282837,678.598389 476.412964,677.898132 477.100861,676.937073 
	C477.120087,675.629761 477.139282,674.322449 477.155640,672.299622 
	C477.273621,671.596558 477.391602,670.893433 478.075317,669.936157 
	C478.087280,668.627563 478.099243,667.318909 478.107910,665.239441 
	C478.263184,664.227417 478.418488,663.215332 479.126129,661.931580 
	C479.126648,660.625000 479.127197,659.318420 479.124969,657.241150 
	C479.279785,656.229309 479.434631,655.217468 480.155945,653.896729 
	C480.161926,652.269958 480.167877,650.643250 480.157471,648.245483 
	C480.283783,647.228943 480.410095,646.212341 481.155334,644.834839 
	C481.844452,642.481140 482.533600,640.127441 483.630981,638.243530 
	C483.975128,638.997498 484.319275,639.751465 484.375488,641.249756 
	C485.515137,643.868042 486.654816,646.486267 488.289154,649.691040 
	C493.795441,650.721497 497.322327,654.248291 500.968750,658.314087 
	C502.949890,660.523071 507.414032,661.792236 510.512024,661.422485 
	C515.656860,660.808533 520.799622,658.971619 525.579163,656.835205 
	C530.540466,654.617615 535.352051,651.809753 539.697754,648.551331 
	C543.170044,645.947754 549.019165,644.464722 546.952942,637.687622 
	C560.584412,635.350708 572.408936,630.019165 581.339661,619.175232 
	C583.420715,616.648315 586.580261,615.041870 588.966492,612.726379 
	C592.456787,609.339478 599.445251,610.085693 599.929382,602.536987 
	C603.628296,606.318604 606.604797,609.803345 609.102051,613.603027 
	C613.879639,620.872498 618.413879,628.303101 622.988342,635.704346 
	C624.815796,638.661133 626.477539,641.720215 628.223755,644.727478 
	C629.383972,646.725525 630.235596,649.027649 631.795593,650.643066 
	C635.257385,654.227905 634.150696,661.086243 640.429749,662.566589 
	C640.521851,662.588257 640.528870,662.877625 640.619385,663.012695 
	C647.156006,672.762573 653.421021,682.710327 660.325134,692.192810 
	C665.818970,699.738464 670.595032,707.526428 673.705627,716.781311 
	C674.731689,716.949707 676.160461,717.184143 676.786621,717.286865 
	C678.392212,719.968872 679.481201,722.166199 680.912842,724.111206 
	C686.032532,731.066467 691.387268,737.850830 696.424988,744.863647 
	C700.899719,751.092651 704.650330,757.880920 709.465576,763.818115 
	C719.156555,775.766846 728.989258,787.644226 739.461243,798.901917 
	C747.590271,807.640808 756.177185,816.188965 765.661499,823.367249 
	C775.581909,830.875671 786.609741,837.223267 799.808411,837.324280 
	C802.026978,837.341309 804.520569,837.080383 806.425842,836.074280 
	C813.763855,832.199219 820.941956,828.016296 828.102844,823.817017 
	C829.077393,823.245605 829.783875,822.015198 830.319275,820.942566 
	C831.199341,819.179321 831.837952,817.295532 832.642212,815.304626 
	C830.669678,814.001282 827.975342,812.393433 825.480835,810.519470 
	C823.383423,808.943909 821.515564,808.159668 819.294128,810.243652 
	C818.746033,810.757812 817.575378,811.315125 817.077820,811.069336 
	C810.456543,807.798889 803.693481,804.730042 797.429016,800.860840 
	C794.566956,799.093140 792.806580,795.599731 790.395813,793.030457 
	C786.315186,788.681702 782.199768,784.357300 777.908936,780.219666 
	C776.741211,779.093689 774.911682,778.095825 773.354004,778.046387 
	C769.930054,777.937744 768.543030,776.523132 767.550049,773.231689 
	C765.850159,767.597168 762.619629,762.894897 755.941711,761.183655 
	C757.732849,760.067383 759.258545,759.116516 761.535278,757.697693 
	C758.066711,756.641357 755.532898,755.869690 753.162720,755.147888 
	C753.923767,753.065063 754.483337,751.533813 755.042908,750.002625 
	C753.602051,749.772705 752.161194,749.542786 750.247986,749.237488 
	C748.631653,746.656982 747.026245,743.185791 744.589050,740.457825 
	C742.138794,737.715332 738.860596,735.712463 735.546570,733.067322 
	C736.796814,729.760010 736.588379,726.911255 732.302124,723.146545 
	C729.049316,720.289551 726.902771,716.671875 721.706421,716.663025 
	C726.766724,706.288086 716.436951,711.530640 713.551025,708.608337 
	C716.604004,707.203857 719.094360,706.058289 720.402222,705.456665 
	C717.988953,702.547241 715.458130,700.286072 713.935364,697.478271 
	C711.546631,693.073669 710.659546,687.770508 704.846558,685.949890 
	C703.547241,685.542908 702.718689,683.632751 702.494507,683.371460 
	C705.981628,673.421143 695.154053,673.436157 693.660767,667.767395 
	C697.541016,666.154846 695.110840,664.612793 693.573486,662.927490 
	C689.069397,657.989807 684.004639,653.411316 680.346924,647.903564 
	C677.576599,643.732178 675.650818,639.462097 669.737976,638.643799 
	C670.830139,638.098511 671.922241,637.553162 673.754456,636.965637 
	C676.371338,632.967224 673.953247,630.388916 670.707703,627.339233 
	C669.525513,626.476501 668.343323,625.613831 666.763733,624.238525 
	C665.867004,622.145996 664.970337,620.053528 663.572205,617.523926 
	C660.966736,615.471985 658.361206,613.420105 655.943909,610.651672 
	C656.526917,609.355103 657.109924,608.058472 657.728271,606.683167 
	C656.347534,605.697205 655.154724,604.845459 654.106140,603.240784 
	C654.143311,602.478760 654.180542,601.716736 654.654663,600.551147 
	C653.817688,599.351746 652.980713,598.152405 651.666748,596.558105 
	C650.775146,595.710449 649.883606,594.862793 648.929871,593.257141 
	C648.164062,589.725708 645.545776,589.802979 642.371765,589.825623 
	C642.146667,589.361450 641.921570,588.897278 641.914795,587.650024 
	C641.949890,587.110352 641.984985,586.570740 642.011841,585.995605 
z"/>
<path fill="#FBFBFD" opacity="1.000000" stroke="none" 
	d="
M678.551514,538.518494 
	C677.846436,539.257446 677.141418,539.996338 675.806213,540.829102 
	C674.777161,541.600586 674.378296,542.278198 673.979431,542.955872 
	C672.899231,543.723083 671.818970,544.490295 670.251221,545.679932 
	C669.650879,546.886536 669.538025,547.670654 669.425110,548.454712 
	C667.236023,550.272522 665.046997,552.090393 662.305847,553.938965 
	C660.546326,553.005493 659.521118,550.279785 657.873718,553.568237 
	C657.622498,553.870361 657.371216,554.172485 656.617065,554.724976 
	C655.199829,555.588135 654.285400,556.200867 653.252136,556.445801 
	C651.782227,556.228149 649.757202,555.878540 649.206055,556.621826 
	C647.535950,558.874329 646.436707,561.550110 645.115051,564.061035 
	C644.831543,564.231995 644.548035,564.402954 643.804688,564.837891 
	C643.410950,566.630737 643.476990,568.159546 643.543030,569.688416 
	C642.002563,571.107605 640.462158,572.526794 638.508362,574.406494 
	C637.195923,576.315613 636.296875,577.764282 635.012390,579.834045 
	C636.696289,579.916443 637.842896,579.972534 638.989563,580.028687 
	C639.967407,580.836487 640.945251,581.644348 642.132874,583.074097 
	C642.240540,584.472595 642.138428,585.249268 642.036377,586.025879 
	C642.036316,586.025879 642.011841,585.995605 641.730530,585.964966 
	C641.531616,586.767212 641.614014,587.600159 641.696472,588.433105 
	C641.921570,588.897278 642.146667,589.361450 642.668335,590.318726 
	C644.973938,591.879578 646.982971,592.947327 648.992004,594.015137 
	C649.883606,594.862793 650.775146,595.710449 651.909668,597.089233 
	C652.840942,598.731812 653.529358,599.843262 654.217773,600.954712 
	C654.180542,601.716736 654.143311,602.478760 653.722900,603.818726 
	C654.145081,606.720520 654.950378,609.044373 655.755737,611.368164 
	C658.361206,613.420105 660.966736,615.471985 663.835449,618.177673 
	C664.097839,620.256775 663.722839,621.836792 664.225830,623.053894 
	C664.568298,623.882507 666.139465,624.203247 667.161133,624.751099 
	C668.343323,625.613831 669.525513,626.476501 670.961670,628.042114 
	C670.926758,631.692688 668.813416,635.037537 673.014404,637.007812 
	C671.922241,637.553162 670.830139,638.098511 669.737976,638.643799 
	C675.650818,639.462097 677.576599,643.732178 680.346924,647.903564 
	C684.004639,653.411316 689.069397,657.989807 693.573486,662.927490 
	C695.110840,664.612793 697.541016,666.154846 693.660767,667.767395 
	C695.154053,673.436157 705.981628,673.421143 702.494507,683.371460 
	C702.718689,683.632751 703.547241,685.542908 704.846558,685.949890 
	C710.659546,687.770508 711.546631,693.073669 713.935364,697.478271 
	C715.458130,700.286072 717.988953,702.547241 720.402222,705.456665 
	C719.094360,706.058289 716.604004,707.203857 713.551025,708.608337 
	C716.436951,711.530640 726.766724,706.288086 721.706421,716.663025 
	C726.902771,716.671875 729.049316,720.289551 732.302124,723.146545 
	C736.588379,726.911255 736.796814,729.760010 735.546570,733.067322 
	C738.860596,735.712463 742.138794,737.715332 744.589050,740.457825 
	C747.026245,743.185791 748.631653,746.656982 750.247986,749.237488 
	C752.161194,749.542786 753.602051,749.772705 755.042908,750.002563 
	C754.483337,751.533813 753.923767,753.065063 753.162720,755.147888 
	C755.532898,755.869690 758.066711,756.641357 761.535278,757.697693 
	C759.258545,759.116516 757.732849,760.067383 755.941711,761.183655 
	C762.619629,762.894897 765.850159,767.597168 767.550049,773.231689 
	C768.543030,776.523132 769.930054,777.937744 773.354004,778.046387 
	C774.911682,778.095825 776.741211,779.093689 777.908936,780.219666 
	C782.199768,784.357300 786.315186,788.681702 790.395813,793.030457 
	C792.806580,795.599731 794.566956,799.093140 797.429016,800.860840 
	C803.693481,804.730042 810.456543,807.798889 817.077820,811.069336 
	C817.575378,811.315125 818.746033,810.757812 819.294128,810.243652 
	C821.515564,808.159668 823.383423,808.943909 825.480835,810.519470 
	C827.975342,812.393433 830.669678,814.001282 832.642212,815.304626 
	C831.837952,817.295532 831.199341,819.179321 830.319275,820.942566 
	C829.783875,822.015198 829.077393,823.245605 828.102844,823.817017 
	C820.941956,828.016296 813.763855,832.199219 806.425842,836.074280 
	C804.520569,837.080383 802.026978,837.341309 799.808411,837.324280 
	C786.609741,837.223267 775.581909,830.875671 765.661499,823.367249 
	C756.177185,816.188965 747.590271,807.640808 739.461243,798.901917 
	C728.989258,787.644226 719.156555,775.766846 709.465576,763.818115 
	C704.650330,757.880920 700.899719,751.092651 696.424988,744.863647 
	C691.387268,737.850830 686.032532,731.066467 680.912842,724.111206 
	C679.481201,722.166199 678.392212,719.968872 676.786621,717.286865 
	C676.160461,717.184143 674.731689,716.949707 673.705627,716.781311 
	C670.595032,707.526428 665.818970,699.738464 660.325134,692.192810 
	C653.421021,682.710327 647.156006,672.762573 640.619385,663.012695 
	C640.528870,662.877625 640.521851,662.588257 640.429749,662.566589 
	C634.150696,661.086243 635.257385,654.227905 631.795593,650.643066 
	C630.235596,649.027649 629.383972,646.725525 628.223755,644.727478 
	C626.477539,641.720215 624.815796,638.661133 622.988342,635.704346 
	C618.413879,628.303101 613.879639,620.872498 609.102051,613.603027 
	C606.604797,609.803345 603.628296,606.318604 599.929382,602.536987 
	C599.445251,610.085693 592.456787,609.339478 588.966492,612.726379 
	C586.580261,615.041870 583.420715,616.648315 581.339661,619.175232 
	C572.408936,630.019165 560.584412,635.350708 546.952942,637.687622 
	C549.019165,644.464722 543.170044,645.947754 539.697754,648.551331 
	C535.352051,651.809753 530.540466,654.617615 525.579163,656.835205 
	C520.799622,658.971619 515.656860,660.808533 510.512024,661.422485 
	C507.414032,661.792236 502.949890,660.523071 500.968750,658.314087 
	C497.322327,654.248291 493.795441,650.721497 488.063965,649.027466 
	C486.780304,645.744385 485.721863,643.124878 484.663391,640.505432 
	C484.319275,639.751465 483.975128,638.997498 483.364166,637.649414 
	C482.219574,637.394348 480.622894,637.665100 480.583191,638.083557 
	C480.360229,640.434631 480.512299,642.821289 480.536438,645.195801 
	C480.410095,646.212341 480.283783,647.228943 479.911835,648.920532 
	C479.640625,651.132263 479.615051,652.668945 479.589478,654.205627 
	C479.434631,655.217468 479.279785,656.229309 478.871155,657.898193 
	C478.602814,659.771240 478.588287,660.987305 478.573792,662.203308 
	C478.418488,663.215332 478.263184,664.227417 477.855286,665.895264 
	C477.571625,667.764160 477.540588,668.977234 477.509552,670.190369 
	C477.391602,670.893433 477.273621,671.596558 476.901245,672.927307 
	C476.612244,674.769287 476.577667,675.983521 476.543091,677.197815 
	C476.412964,677.898132 476.282837,678.598389 475.901672,679.905151 
	C475.647949,681.412964 475.645233,682.314392 475.642548,683.215759 
	C475.489838,683.910950 475.337128,684.606140 474.924011,685.925659 
	C474.596802,687.760132 474.529999,688.970276 474.463196,690.180359 
	C474.367432,690.584106 474.271667,690.987793 473.918365,691.945435 
	C473.607941,693.396484 473.555054,694.293762 473.502197,695.190979 
	C473.390747,695.590210 473.279297,695.989502 472.881134,696.918518 
	C472.240173,702.364319 471.885956,707.280396 471.531738,712.196411 
	C471.466919,713.481262 471.402161,714.766052 471.313293,716.845764 
	C471.381378,718.828125 471.473511,720.015564 471.565674,721.203064 
	C471.429901,721.901550 471.294128,722.599976 470.907166,723.929688 
	C470.623413,725.776978 470.590851,726.993042 470.558289,728.209045 
	C470.424347,728.906677 470.290375,729.604370 469.901917,730.974121 
	C468.990814,738.604126 469.890869,745.874817 465.479919,752.085449 
	C465.196045,752.485107 465.364227,753.255859 465.427155,753.842712 
	C465.650391,755.925415 465.919128,758.003357 466.170624,760.083069 
	C464.436707,761.695496 462.702789,763.307861 460.713257,765.157959 
	C468.492371,770.059692 465.876678,776.968384 464.870667,783.533020 
	C464.349121,786.936462 463.592285,790.310486 463.239197,793.728516 
	C463.151245,794.579712 464.216400,795.550049 464.756195,796.473633 
	C458.724457,803.550903 458.373291,814.368652 464.219269,816.756104 
	C462.754456,822.759460 461.299438,828.762024 465.804749,834.340637 
	C466.210846,834.843445 465.189484,837.304382 464.229370,837.924683 
	C462.614227,838.968079 460.546539,839.615601 458.613098,839.783325 
	C456.291656,839.984680 453.897278,839.612183 451.562103,839.288696 
	C450.147949,839.092773 448.786560,838.517334 447.400787,838.114746 
	C446.380859,837.818420 445.372101,837.469727 444.336761,837.243286 
	C441.797760,836.687805 438.586487,836.985352 436.821381,835.521729 
	C431.142487,830.813049 423.204346,829.615112 418.788055,822.817505 
	C414.794617,816.670715 413.541443,807.352966 417.156433,800.856079 
	C417.397736,800.422424 417.855896,799.930420 417.792114,799.533142 
	C417.032074,794.799622 416.192047,790.078979 415.304962,784.962708 
	C415.794830,784.731506 416.923676,784.198608 418.808105,783.309082 
	C414.779266,780.966675 415.087708,778.323914 417.236359,775.216492 
	C417.951660,774.181946 417.702026,772.400696 417.695831,770.961609 
	C417.676300,766.423950 416.177368,761.792236 419.736145,757.609436 
	C420.462585,756.755554 418.776611,754.127075 418.801422,752.324890 
	C418.829559,750.278564 419.058868,747.973999 420.034607,746.255005 
	C422.207336,742.427368 424.350006,738.890320 419.347534,735.191284 
	C421.150940,734.275574 422.415497,733.633423 424.300781,732.676086 
	C420.135529,730.412537 421.393341,728.138245 422.839569,725.005981 
	C424.597260,721.199219 425.013245,716.772949 426.125122,712.132812 
	C424.574890,711.994751 423.073242,711.861023 420.613861,711.642029 
	C421.932343,710.418335 422.845703,709.685303 423.615570,708.823975 
	C424.395172,707.951782 425.828644,706.649597 425.603485,706.058350 
	C424.143250,702.223694 425.583771,699.036499 427.496674,695.997620 
	C429.474976,692.854797 429.222015,689.922485 427.981720,686.552002 
	C427.313446,684.735962 427.932404,682.416748 428.089264,680.333435 
	C428.332886,677.098083 430.935150,673.837769 427.687927,670.576538 
	C427.342987,670.230103 428.969696,667.920349 430.181885,665.538696 
	C430.063690,665.498047 428.642029,665.009705 427.220367,664.521362 
	C427.507324,664.067749 427.794312,663.614136 428.081268,663.160522 
	C429.354309,662.601440 430.627350,662.042419 431.877991,661.493164 
	C431.629333,660.403687 431.035370,659.267700 431.190216,658.245056 
	C432.303436,650.894592 433.718903,643.588013 434.740723,636.226196 
	C435.656067,629.631592 437.959015,622.552185 436.471649,616.463074 
	C434.342224,607.745483 440.699432,601.457397 440.314209,593.522766 
	C439.980591,586.651306 441.358551,579.691650 440.961151,572.829895 
	C440.584106,566.319824 440.129120,565.975586 444.903076,561.515259 
	C441.231262,555.693970 441.441315,554.424622 446.888550,550.132385 
	C443.990662,547.564880 441.776489,545.495850 446.880280,542.273254 
	C448.489899,541.256836 448.644440,535.726379 447.501923,533.123535 
	C446.091858,529.911316 444.683563,528.041687 448.640717,525.925964 
	C449.700073,525.359558 450.870941,522.609985 450.438812,522.040710 
	C447.960144,518.775574 449.724670,516.014771 450.690857,512.962158 
	C452.764587,506.410156 452.548920,503.320374 450.089539,500.075287 
	C451.138672,499.205688 452.200226,498.325775 453.659393,497.116302 
	C450.145569,494.672852 451.675415,492.405792 452.765320,489.358856 
	C454.175598,485.416504 453.891174,480.868591 454.340973,476.581879 
	C454.888000,471.368378 455.393280,466.149902 456.001404,460.943512 
	C456.736176,454.652283 457.507812,448.364319 458.361603,442.088318 
	C459.045105,437.064026 459.878326,432.060181 460.639404,427.046387 
	C461.291199,422.752502 461.746887,418.416931 462.657379,414.178925 
	C463.150177,411.885223 464.412933,409.756958 464.407288,407.509583 
	C464.757751,404.321594 465.029053,401.122559 465.473419,397.947723 
	C466.843262,388.160126 468.165161,378.363251 469.752594,368.610138 
	C470.293488,365.286652 471.555450,362.078979 472.518036,358.827332 
	C472.656158,358.360779 473.281189,357.767731 473.148773,357.531128 
	C469.272705,350.606659 474.349976,343.517792 472.753632,336.157715 
	C456.732849,339.377075 444.873932,355.148926 426.543945,350.619934 
	C430.869720,354.670288 430.333466,358.829712 425.718109,361.829224 
	C420.978546,364.909363 416.700684,368.751160 411.804230,371.524139 
	C406.943024,374.277191 399.465881,374.771973 396.951843,378.699646 
	C393.937836,383.408356 390.674530,387.706512 386.784668,391.445099 
	C376.845428,400.997650 366.578491,410.211304 356.347687,419.455444 
	C355.126862,420.558502 353.317932,421.010712 352.480530,422.235443 
	C350.984100,424.021210 349.637207,425.964142 347.960175,427.560150 
	C344.439880,430.910522 340.390839,433.769135 337.222046,437.407257 
	C333.965637,441.145874 331.091309,445.357025 328.773499,449.743744 
	C324.195740,458.407715 319.701050,467.163452 315.962280,476.207886 
	C312.884277,483.653900 315.101715,490.546509 320.921967,496.114075 
	C324.201874,499.251617 327.509430,502.389313 331.079254,505.174896 
	C332.000092,505.893463 333.958130,505.282898 336.073303,505.282898 
	C337.462128,509.484009 338.896606,513.823181 340.501465,518.677734 
	C332.153961,520.910278 324.755310,521.063660 318.486145,518.064148 
	C302.176422,510.260529 288.527679,498.931458 278.223724,483.822296 
	C266.650696,466.852264 267.433868,449.700623 277.653900,432.643402 
	C282.495483,424.562836 288.094421,416.933960 293.399719,409.134064 
	C296.796875,404.139587 299.905457,398.878845 303.834747,394.335358 
	C308.033661,389.480042 312.979980,385.256866 317.715820,380.883118 
	C326.947693,372.357086 336.271362,363.930511 345.533875,355.437469 
	C349.097473,352.169830 352.419281,348.610413 356.180756,345.595032 
	C359.496643,342.936920 363.278809,340.862366 366.839691,338.506866 
	C368.079346,337.686829 369.741974,337.063354 370.405945,335.893066 
	C373.168335,331.024323 376.461884,327.157288 382.638977,327.114349 
	C383.016022,327.111725 383.364471,326.491730 383.767426,326.220154 
	C392.816742,320.120728 401.877777,314.038666 410.922363,307.932251 
	C413.804443,305.986450 416.634216,303.963226 419.510437,302.008575 
	C421.019928,300.982727 422.475922,299.790283 424.130798,299.080383 
	C435.902222,294.030396 447.689636,289.014496 459.545135,284.166626 
	C461.952209,283.182281 464.669952,282.957703 467.488983,282.328278 
	C465.999542,278.065063 467.518066,276.207275 472.319733,276.052460 
	C474.304840,275.988464 476.213562,273.875824 478.176697,272.728577 
	C480.433228,271.409821 482.582489,269.361420 485.001251,268.954407 
	C501.411774,266.192810 516.381287,258.953247 532.145691,254.259384 
	C547.596497,249.658905 563.277344,245.684906 579.054993,242.380310 
	C589.453674,240.202316 600.204102,238.642288 610.793823,238.661011 
	C632.264404,238.698944 653.921753,235.073639 675.197571,240.864166 
	C693.763855,245.917282 711.459595,252.968887 727.403503,263.947113 
	C734.028442,268.508728 740.986206,272.706696 747.047180,277.934296 
	C753.271545,283.302734 759.364441,289.166809 764.134888,295.805603 
	C773.735168,309.165588 783.231628,322.734619 788.213806,338.754456 
	C788.501038,339.677979 789.013184,340.595734 789.630920,341.342133 
	C794.380737,347.081604 794.431274,350.363831 790.062744,356.472992 
	C791.862488,355.954376 793.662170,355.435730 795.924316,354.783844 
	C796.506470,359.300629 797.217896,364.042694 797.645630,368.810242 
	C797.728760,369.736206 796.922424,371.373260 796.159485,371.642487 
	C790.802124,373.532776 792.940979,377.095245 794.287659,380.157166 
	C796.940979,386.190033 796.568054,389.078400 792.046326,393.879883 
	C791.315125,394.656219 790.253479,396.317505 790.515198,396.651031 
	C793.763794,400.790619 790.177246,402.340179 787.899841,404.642151 
	C786.412231,406.145874 785.245483,408.104645 784.377625,410.056396 
	C782.269104,414.798157 780.537476,419.708038 778.410400,424.440735 
	C777.472107,426.528442 776.118286,428.496246 774.648987,430.266083 
	C769.984924,435.884247 765.174927,441.381134 760.432190,446.934235 
	C760.112061,447.309052 759.547791,447.946564 759.660461,448.150757 
	C762.322937,452.971588 757.260498,453.882812 755.498901,456.426880 
	C751.004639,462.917603 746.550537,469.439819 741.884583,475.805939 
	C740.303223,477.963379 738.355652,480.001251 736.184265,481.542694 
	C732.851318,483.908691 727.978699,484.548187 727.910645,490.168762 
	C727.901184,490.945343 726.278503,491.702393 724.799988,492.738800 
	C723.820740,493.705750 723.444153,494.402405 723.067566,495.099030 
	C720.336548,497.167419 717.605530,499.235809 714.320923,501.710632 
	C713.624268,503.209869 713.481079,504.302673 713.337891,505.395477 
	C710.508728,507.007202 707.679626,508.618958 704.326050,510.664185 
	C703.345764,512.886658 702.889832,514.675720 702.433899,516.464722 
	C697.970459,520.697510 693.507019,524.930237 688.417603,529.145996 
	C687.126404,529.496521 686.461182,529.864014 685.795898,530.231567 
	C685.632202,530.479553 685.468506,530.727478 685.419434,531.434387 
	C685.533936,531.893311 685.547058,531.813110 685.547058,531.813110 
	C684.934326,531.680603 684.321594,531.548096 682.906555,531.723022 
	C680.919983,534.193237 679.735718,536.355896 678.551514,538.518494 
M506.308838,468.589172 
	C506.392578,468.981384 506.476318,469.373566 506.167023,470.328461 
	C506.259796,471.197144 506.352570,472.065796 506.359314,473.475708 
	C506.320068,473.838867 506.280823,474.202026 505.773010,475.059601 
	C505.002441,478.114380 504.231842,481.169189 503.131317,484.835175 
	C501.876617,486.747131 500.621948,488.659088 498.860687,490.791718 
	C498.717529,491.352783 498.574371,491.913849 498.431183,492.474915 
	C498.950867,492.461273 499.470581,492.447632 500.657837,492.355377 
	C501.098907,492.276337 501.540009,492.197327 502.147583,492.848907 
	C502.301178,493.324524 502.454742,493.800140 502.103271,494.832306 
	C501.998230,495.463867 501.893158,496.095459 501.823944,496.837158 
	C501.823944,496.837158 501.939240,496.848419 501.173279,496.345642 
	C500.934113,496.535583 500.694977,496.725525 499.845032,496.893799 
	C496.317444,499.591431 500.797760,499.704559 500.771698,501.278473 
	C500.417206,501.566833 500.062714,501.855225 499.071167,502.264313 
	C499.087280,503.172363 499.103394,504.080444 499.093781,505.670563 
	C498.892761,506.317963 498.691772,506.965363 497.904968,507.983826 
	C497.775665,509.064972 497.646362,510.146118 497.368744,512.034546 
	C497.396301,513.949219 497.423859,515.863953 497.175568,518.363525 
	C498.208313,519.390076 499.241058,520.416687 500.614655,522.122437 
	C501.982513,522.508423 503.350372,522.894470 504.844788,524.030823 
	C505.217590,526.477844 504.631653,528.094177 501.750580,528.411133 
	C501.277344,528.463257 501.005676,530.347412 500.867889,532.071838 
	C498.823273,535.622742 496.778625,539.173584 494.469177,543.117310 
	C494.469177,543.117310 494.283142,543.552979 493.760620,543.950378 
	C493.780029,546.029297 493.799438,548.108215 494.138153,550.636475 
	C494.510345,551.042480 494.882568,551.448547 495.165924,552.745605 
	C495.163666,554.530640 495.161407,556.315735 494.682739,558.554688 
	C493.887848,559.558777 493.092987,560.562805 491.789825,562.009888 
	C491.689789,563.080505 491.589783,564.151123 491.311218,565.904053 
	C491.243622,566.605408 491.176025,567.306763 490.588379,568.547424 
	C490.550812,569.771179 490.513214,570.994873 490.322449,572.795532 
	C490.300964,573.191772 490.279449,573.587952 489.715851,574.546082 
	C489.632324,576.105042 489.548798,577.664062 489.310242,579.809814 
	C489.274658,580.212341 489.239105,580.614807 488.681610,581.562317 
	C488.653809,582.791870 488.626007,584.021362 488.404205,585.924988 
	C488.335602,586.622192 488.266998,587.319336 487.672150,588.627197 
	C487.570038,591.483765 487.467926,594.340393 487.229828,597.793030 
	C487.200165,598.199036 487.170532,598.605042 486.629181,599.562805 
	C486.609344,600.789734 486.589508,602.016602 486.384460,603.920898 
	C486.317383,604.619080 486.250336,605.317261 485.679901,606.528320 
	C486.127380,608.008057 486.574890,609.487854 487.757477,610.863525 
	C489.325562,610.099548 490.861359,609.257874 492.469086,608.589233 
	C495.054626,607.513916 498.797058,607.309143 500.096100,605.403809 
	C504.271973,599.279175 511.560486,599.529419 516.820618,596.019653 
	C524.205811,591.092041 531.065430,585.374023 538.105408,579.936646 
	C538.720154,579.461914 539.103027,578.602539 539.426575,577.849976 
	C540.870056,574.492859 542.827209,574.034363 545.352966,576.843689 
	C548.625427,574.157776 551.846619,571.640564 554.918091,568.952332 
	C557.302917,566.865051 559.459106,564.518616 561.800537,562.378906 
	C562.895691,561.378052 564.214661,560.626587 565.384277,559.701538 
	C566.583130,558.753357 568.246155,557.932556 568.729065,556.679504 
	C569.138794,555.616150 568.531982,553.711609 567.720215,552.710083 
	C565.149963,549.538879 562.257385,546.630371 559.518311,543.594299 
	C556.174133,539.887512 552.674316,536.299133 549.602966,532.376709 
	C547.838867,530.123718 545.594666,527.276611 548.790283,524.453491 
	C565.254700,509.908142 575.188293,506.257965 595.065735,516.623535 
	C599.893555,519.141235 604.359192,521.013977 605.704956,526.754456 
	C605.759583,526.987732 606.222656,527.125183 607.196533,527.775452 
	C608.975525,526.287659 611.015869,524.734924 612.873352,522.987671 
	C615.047729,520.942383 616.920166,518.562927 619.171204,516.614502 
	C629.956421,507.279541 640.989990,498.223694 651.573730,488.668121 
	C655.185181,485.407501 660.462708,483.412964 661.524902,477.749268 
	C671.932800,472.767456 678.730103,463.625397 686.682617,455.826477 
	C687.963684,454.570099 688.711060,452.786835 689.839050,451.352478 
	C691.139954,449.698090 692.470520,448.033661 694.000244,446.599670 
	C696.861084,443.917786 702.492310,442.747681 698.609375,436.646393 
	C703.514343,433.785156 710.377563,433.351074 711.081604,425.961609 
	C711.125732,425.498413 712.544495,425.273285 713.128845,424.728333 
	C713.926453,423.984467 714.621155,423.093719 715.210876,422.170685 
	C716.828552,419.638428 718.368530,417.056519 719.939087,414.494141 
	C720.925049,412.885559 721.945679,411.296814 722.883484,409.660645 
	C723.443420,408.683624 723.720093,406.869385 724.385986,406.735657 
	C729.357483,405.737457 730.207153,401.517365 732.140442,397.884155 
	C735.368469,391.817902 739.395508,386.172699 742.551331,380.073547 
	C744.970825,375.397522 746.468079,370.253174 748.547424,365.390594 
	C753.637939,353.485931 755.162109,341.082336 754.338989,328.238586 
	C753.930481,321.863678 751.600525,316.473206 746.735657,312.534515 
	C741.454346,308.258636 736.117004,303.808228 730.157532,300.656738 
	C707.386902,288.615234 682.619385,284.686615 657.220947,284.792236 
	C641.194946,284.858856 625.173706,286.191071 609.152954,287.005127 
	C608.556030,287.035461 608.014465,287.671967 607.398254,287.883270 
	C602.848206,289.443176 598.352356,291.215790 593.715088,292.456543 
	C577.806946,296.713104 561.839600,300.747803 545.911865,304.931976 
	C538.507568,306.877045 531.523804,309.583984 526.715149,317.102875 
	C526.646667,319.478149 526.578186,321.853424 526.332458,324.810425 
	C526.283508,325.212158 526.234619,325.613922 525.662048,326.550812 
	C525.594727,327.772369 525.527405,328.993958 525.295166,330.802582 
	C525.254150,331.206512 525.213135,331.610413 524.648071,332.552734 
	C524.595703,333.776154 524.543335,334.999542 524.326660,336.970276 
	C524.394714,338.237457 524.462830,339.504608 524.171509,341.654175 
	C523.807373,345.789459 523.443237,349.924744 522.474548,354.355560 
	C522.152344,355.494690 521.830200,356.633820 521.108582,358.538147 
	C521.636841,359.707550 522.165100,360.876984 522.294678,362.659180 
	C521.679504,363.974182 521.064331,365.289185 519.905640,367.047455 
	C519.477478,369.450439 519.049316,371.853394 518.397522,374.922516 
	C518.309570,375.618622 518.221619,376.314697 517.610962,377.549194 
	C517.568909,378.773376 517.526917,379.997589 517.315247,381.965546 
	C517.255493,382.980530 517.195679,383.995483 516.698853,385.394989 
	C517.029358,386.361481 517.359863,387.327972 518.296631,388.710876 
	C518.211243,389.708466 518.368835,390.811890 517.990051,391.681793 
	C517.188416,393.522919 516.106812,395.242157 514.603760,397.481415 
	C514.551453,398.391357 514.499084,399.301270 514.288025,400.800873 
	C514.255432,401.206024 514.222839,401.611176 513.680176,402.584167 
	C513.830566,405.051422 513.980957,407.518646 514.146729,410.664185 
	C514.168579,411.115906 514.190491,411.567657 513.684204,412.510345 
	C513.843689,414.334473 514.003174,416.158569 514.153748,418.799683 
	C514.225220,419.886414 514.296631,420.973145 513.601746,422.208099 
	C512.375854,422.942841 511.149933,423.677612 509.924011,424.412354 
	C510.122162,424.846100 510.320343,425.279877 510.518494,425.713623 
	C511.778015,425.713623 513.037476,425.713623 514.195312,426.475952 
	C514.184326,426.988373 514.173340,427.500763 513.643616,428.568390 
	C513.642334,429.798553 513.640991,431.028717 513.440918,432.830109 
	C513.379883,433.228088 513.318848,433.626038 512.716003,434.467712 
	C512.566345,435.361969 512.416748,436.256256 511.921631,437.685547 
	C511.090393,438.650818 510.259155,439.616089 508.868927,440.936432 
	C509.141785,442.390778 509.414612,443.845154 510.041016,446.054596 
	C510.099670,447.709869 510.158325,449.365173 509.599548,451.355865 
	C508.617126,452.661346 507.634705,453.966827 506.399017,455.926971 
	C506.304108,456.620972 506.209198,457.315002 505.589264,458.548584 
	C505.563721,459.775299 505.538208,461.002045 505.364899,462.859741 
	C505.382690,463.503571 505.400482,464.147369 505.139008,465.470367 
	C505.507874,466.310364 505.876709,467.150330 506.308838,468.589172 
M686.789429,516.010620 
	C688.561951,515.717468 690.334412,515.424316 692.106934,515.131226 
	C692.109985,514.748291 692.112976,514.365417 692.116028,513.982483 
	C690.910828,513.465820 689.705627,512.949158 688.030884,512.231201 
	C689.565674,511.235931 691.023621,510.670105 691.885681,509.616669 
	C692.633667,508.702637 692.706787,507.236359 693.078186,506.014160 
	C691.814209,506.192902 690.303650,505.993134 689.334534,506.624451 
	C686.858887,508.237213 684.737000,510.392273 682.264160,512.010193 
	C679.434631,513.861450 677.928528,515.858398 680.486694,518.957764 
	C678.852173,520.138367 677.599670,521.043030 675.991211,522.204834 
	C677.461121,523.570557 678.588562,524.618103 680.195190,526.110840 
	C682.359985,522.367371 684.163513,519.248535 686.789429,516.010620 
M468.382904,707.695435 
	C465.973907,705.540405 463.564911,703.385376 461.155914,701.230347 
	C460.867554,701.518494 460.579193,701.806641 460.290802,702.094727 
	C460.939453,703.843384 461.588104,705.591980 462.337402,707.611938 
	C456.621155,706.616394 455.499237,708.795959 456.768860,717.788757 
	C458.142120,716.333252 459.328430,715.075928 460.514740,713.818542 
	C462.498749,714.359497 464.336609,714.298889 465.333221,713.352356 
	C466.709686,712.045288 467.451904,710.070312 468.382904,707.695435 
M693.964478,501.790253 
	C695.161438,502.451630 697.014587,503.976501 697.454834,503.641968 
	C702.358643,499.915924 707.059509,495.920532 711.747620,491.918762 
	C712.010620,491.694244 711.683472,490.778442 711.551147,489.280212 
	C705.398865,493.463928 699.803894,497.268646 693.964478,501.790253 
M595.332153,284.571716 
	C596.327393,285.025970 597.481018,286.063416 598.293030,285.842896 
	C605.275024,283.946503 612.195374,281.822937 619.134155,279.767212 
	C619.073975,279.295471 619.013855,278.823761 618.953735,278.352051 
	C616.642273,278.352051 614.181396,277.835815 612.048401,278.452881 
	C606.567200,280.038635 601.231384,282.127075 595.332153,284.571716 
M740.116943,450.087128 
	C744.773926,453.618591 747.386108,448.771851 750.676086,447.891052 
	C750.814026,445.408997 750.927185,443.373962 751.082031,440.588226 
	C747.015320,443.777863 743.424500,446.594238 740.116943,450.087128 
M539.797913,629.620239 
	C543.803772,631.813293 552.502502,628.384460 556.027771,623.108704 
	C553.122742,620.955261 551.757263,622.687744 549.474365,624.641479 
	C546.949585,626.802063 543.168396,627.494446 539.797913,629.620239 
M445.251251,341.911713 
	C445.741180,341.353577 446.231110,340.795441 446.928284,340.001251 
	C439.357635,339.578186 434.610443,341.827972 433.005890,347.749481 
	C437.524445,345.650055 441.104736,343.986572 445.251251,341.911713 
M715.313477,486.628418 
	C717.726501,483.560394 720.139526,480.492371 723.272949,476.508423 
	C720.104431,477.376373 717.835266,477.709229 715.830688,478.622772 
	C713.511353,479.679688 712.922180,485.669250 715.313477,486.628418 
M464.151062,687.673218 
	C461.543457,691.201904 461.047363,694.685181 463.622711,698.102417 
	C464.175812,698.138000 464.728882,698.173645 465.281982,698.209229 
	C465.880066,693.945557 466.478149,689.681885 467.076233,685.418213 
	C466.616364,685.308777 466.156464,685.199280 465.696594,685.089783 
	C465.253754,685.696411 464.810944,686.303040 464.151062,687.673218 
M624.563110,539.836365 
	C624.978455,540.943176 625.393799,542.050049 625.809143,543.156860 
	C627.016541,542.512878 628.861816,542.155762 629.305847,541.168457 
	C630.419678,538.692139 630.899292,535.930542 631.633301,533.283386 
	C631.352356,533.072632 631.071411,532.861877 630.790466,532.651123 
	C628.686584,534.777344 626.582764,536.903564 624.563110,539.836365 
M549.942078,296.124420 
	C552.980103,295.424255 556.018127,294.724091 559.056091,294.023926 
	C558.805664,293.161316 558.555237,292.298706 558.304810,291.436066 
	C553.288757,292.917877 548.272644,294.399689 543.256531,295.881500 
	C543.883179,297.284546 544.179138,297.561310 544.398010,297.509857 
	C545.994690,297.134674 547.575806,296.693481 549.942078,296.124420 
M559.015442,281.061127 
	C560.640137,281.202301 562.344849,281.076172 563.874878,281.533844 
	C568.842590,283.019867 569.396606,282.647186 569.566772,275.975708 
	C565.552673,277.681366 561.921326,279.224396 559.015442,281.061127 
M417.148132,353.684540 
	C415.192474,355.857330 413.236816,358.030151 411.281158,360.202972 
	C411.545135,360.614380 411.809113,361.025787 412.073090,361.437195 
	C415.288269,359.414642 418.503448,357.392090 421.718628,355.369537 
	C421.567047,354.650421 421.415436,353.931274 421.263824,353.212158 
	C419.856537,353.130676 418.449219,353.049164 417.148132,353.684540 
M454.430603,753.871948 
	C455.530273,753.833435 457.429688,754.122437 457.601166,753.703735 
	C458.798431,750.780334 459.638000,747.710449 460.592194,744.687500 
	C459.704651,744.404358 458.817078,744.121216 457.929535,743.838074 
	C456.879608,746.999207 455.829681,750.160278 454.430603,753.871948 
M632.322327,276.283203 
	C634.067810,281.285156 638.314880,276.113251 641.050232,278.413513 
	C640.923401,276.903564 640.389099,274.984802 639.760193,274.953308 
	C637.348328,274.832397 634.906128,275.317200 632.322327,276.283203 
M634.011963,565.222717 
	C636.050659,562.472290 638.089355,559.721863 640.128113,556.971436 
	C634.254089,557.996399 632.621643,560.616089 634.011963,565.222717 
M562.947266,291.998474 
	C566.539795,291.009552 570.940552,291.436951 572.893860,287.575470 
	C572.593933,287.033264 572.294006,286.491058 571.994019,285.948822 
	C568.759583,287.839294 565.525085,289.729736 562.947266,291.998474 
M725.797607,446.453003 
	C727.029419,444.549774 726.625244,443.192474 724.413025,444.517517 
	C722.282776,445.793427 720.761841,448.086487 718.973145,449.932648 
	C719.459106,450.437653 719.945068,450.942657 720.430969,451.447662 
	C722.072266,449.957703 723.713623,448.467712 725.797607,446.453003 
z"/>
<path fill="#766CB6" opacity="1.000000" stroke="none" 
	d="
M466.512085,759.984741 
	C465.919128,758.003357 465.650391,755.925415 465.427155,753.842712 
	C465.364227,753.255859 465.196045,752.485107 465.479919,752.085449 
	C469.890869,745.874817 468.990814,738.604126 469.903656,731.330688 
	C470.394379,734.090576 471.045685,737.203491 470.773041,740.233276 
	C470.269104,745.833130 469.278809,751.393372 468.354736,756.947449 
	C468.182678,757.981689 467.370392,758.909485 466.512085,759.984741 
z"/>
<path fill="#5B4FA8" opacity="1.000000" stroke="none" 
	d="
M645.442505,564.078125 
	C646.436707,561.550110 647.535950,558.874329 649.206055,556.621826 
	C649.757202,555.878540 651.782227,556.228149 653.124207,556.807983 
	C651.321106,559.717529 649.527039,561.897095 647.732971,564.076660 
	C647.078674,564.082886 646.424316,564.089111 645.442505,564.078125 
z"/>
<path fill="#BEB9DC" opacity="1.000000" stroke="none" 
	d="
M647.945801,564.385864 
	C649.527039,561.897095 651.321106,559.717529 653.243042,557.175781 
	C654.285400,556.200867 655.199829,555.588135 656.403076,554.927856 
	C655.395996,557.628479 654.389954,560.579895 652.670837,563.031311 
	C651.914246,564.110107 649.707214,564.171692 647.945801,564.385864 
z"/>
<path fill="#7065B3" opacity="1.000000" stroke="none" 
	d="
M673.384399,636.986694 
	C668.813416,635.037537 670.926758,631.692688 671.207275,628.325195 
	C673.953247,630.388916 676.371338,632.967224 673.384399,636.986694 
z"/>
<path fill="#766CB6" opacity="1.000000" stroke="none" 
	d="
M471.841095,712.039795 
	C471.885956,707.280396 472.240173,702.364319 472.860474,697.229797 
	C472.801147,701.968567 472.475800,706.925903 471.841095,712.039795 
z"/>
<path fill="#5B4FA8" opacity="1.000000" stroke="none" 
	d="
M655.849854,611.009888 
	C654.950378,609.044373 654.145081,606.720520 653.650818,604.195190 
	C655.154724,604.845459 656.347534,605.697205 657.728271,606.683167 
	C657.109924,608.058472 656.526917,609.355103 655.849854,611.009888 
z"/>
<path fill="#766CB6" opacity="1.000000" stroke="none" 
	d="
M480.845886,645.015320 
	C480.512299,642.821289 480.360229,640.434631 480.583191,638.083557 
	C480.622894,637.665100 482.219574,637.394348 483.160034,637.414551 
	C482.533600,640.127441 481.844452,642.481140 480.845886,645.015320 
z"/>
<path fill="#BEB9DC" opacity="1.000000" stroke="none" 
	d="
M678.848267,538.286438 
	C679.735718,536.355896 680.919983,534.193237 682.445190,531.959595 
	C682.873291,534.712036 683.190308,537.671265 678.848267,538.286438 
z"/>
<path fill="#7065B3" opacity="1.000000" stroke="none" 
	d="
M666.962402,624.494812 
	C666.139465,624.203247 664.568298,623.882507 664.225830,623.053894 
	C663.722839,621.836792 664.097839,620.256775 664.086182,618.396240 
	C664.970337,620.053528 665.867004,622.145996 666.962402,624.494812 
z"/>
<path fill="#5B4FA8" opacity="1.000000" stroke="none" 
	d="
M638.964478,579.571594 
	C637.842896,579.972534 636.696289,579.916443 635.012390,579.834045 
	C636.296875,577.764282 637.195923,576.315613 638.392090,574.702271 
	C638.772583,576.063232 638.856018,577.588867 638.964478,579.571594 
z"/>
<path fill="#5B4FA8" opacity="1.000000" stroke="none" 
	d="
M643.890320,569.768677 
	C643.476990,568.159546 643.410950,566.630737 643.673218,565.052063 
	C643.625305,566.639954 650.161926,567.940979 643.890320,569.768677 
z"/>
<path fill="#766CB6" opacity="1.000000" stroke="none" 
	d="
M470.842316,728.114380 
	C470.590851,726.993042 470.623413,725.776978 470.908142,724.286804 
	C472.467865,724.848877 473.775360,725.685059 475.608917,726.857666 
	C473.816559,727.322327 472.471436,727.671021 470.842316,728.114380 
z"/>
<path fill="#5B4FA8" opacity="1.000000" stroke="none" 
	d="
M648.960938,593.636108 
	C646.982971,592.947327 644.973938,591.879578 642.886108,590.463013 
	C645.545776,589.802979 648.164062,589.725708 648.960938,593.636108 
z"/>
<path fill="#BEB9DC" opacity="1.000000" stroke="none" 
	d="
M658.140930,553.771851 
	C659.521118,550.279785 660.546326,553.005493 662.058960,554.157776 
	C661.733398,555.000488 661.102539,555.655090 660.471680,556.309753 
	C659.783813,555.531616 659.096008,554.753540 658.140930,553.771851 
z"/>
<path fill="#766CB6" opacity="1.000000" stroke="none" 
	d="
M484.519470,640.877563 
	C485.721863,643.124878 486.780304,645.744385 487.816620,648.734192 
	C486.654816,646.486267 485.515137,643.868042 484.519470,640.877563 
z"/>
<path fill="#766CB6" opacity="1.000000" stroke="none" 
	d="
M479.872711,654.051147 
	C479.615051,652.668945 479.640625,651.132263 479.920013,649.306030 
	C480.167877,650.643250 480.161926,652.269958 479.872711,654.051147 
z"/>
<path fill="#BEB9DC" opacity="1.000000" stroke="none" 
	d="
M702.714600,516.269531 
	C702.889832,514.675720 703.345764,512.886658 704.111694,510.960754 
	C703.946289,512.573975 703.470764,514.324158 702.714600,516.269531 
z"/>
<path fill="#766CB6" opacity="1.000000" stroke="none" 
	d="
M476.821991,677.067444 
	C476.577667,675.983521 476.612244,674.769287 476.902649,673.285034 
	C477.139282,674.322449 477.120087,675.629761 476.821991,677.067444 
z"/>
<path fill="#766CB6" opacity="1.000000" stroke="none" 
	d="
M477.792419,670.063232 
	C477.540588,668.977234 477.571625,667.764160 477.856934,666.280640 
	C478.099243,667.318909 478.087280,668.627563 477.792419,670.063232 
z"/>
<path fill="#5B4FA8" opacity="1.000000" stroke="none" 
	d="
M654.436218,600.752930 
	C653.529358,599.843262 652.840942,598.731812 652.148132,597.286682 
	C652.980713,598.152405 653.817688,599.351746 654.436218,600.752930 
z"/>
<path fill="#766CB6" opacity="1.000000" stroke="none" 
	d="
M478.849945,662.067444 
	C478.588287,660.987305 478.602814,659.771240 478.872528,658.283569 
	C479.127197,659.318420 479.126648,660.625000 478.849945,662.067444 
z"/>
<path fill="#766CB6" opacity="1.000000" stroke="none" 
	d="
M471.838440,721.071289 
	C471.473511,720.015564 471.381378,718.828125 471.441711,717.214111 
	C471.766510,718.171570 471.938873,719.555481 471.838440,721.071289 
z"/>
<path fill="#766CB6" opacity="1.000000" stroke="none" 
	d="
M474.751831,690.059082 
	C474.529999,688.970276 474.596802,687.760132 474.920288,686.283264 
	C475.131500,687.323608 475.085999,688.630737 474.751831,690.059082 
z"/>
<path fill="#5B4FA8" opacity="1.000000" stroke="none" 
	d="
M642.370117,586.034668 
	C642.138428,585.249268 642.240540,584.472595 642.361816,583.297058 
	C642.488586,583.946594 642.596252,584.995056 642.370117,586.034668 
z"/>
<path fill="#766CB6" opacity="1.000000" stroke="none" 
	d="
M473.773315,695.091248 
	C473.555054,694.293762 473.607941,693.396484 473.914001,692.257568 
	C474.126251,693.007690 474.085358,693.999634 473.773315,695.091248 
z"/>
<path fill="#766CB6" opacity="1.000000" stroke="none" 
	d="
M475.899170,683.095703 
	C475.645233,682.314392 475.647949,681.412964 475.901367,680.262817 
	C476.153381,681.001221 476.154602,681.988403 475.899170,683.095703 
z"/>
<path fill="#BEB9DC" opacity="1.000000" stroke="none" 
	d="
M713.627136,505.222168 
	C713.481079,504.302673 713.624268,503.209869 714.075867,501.967072 
	C714.228333,502.894348 714.072327,503.971619 713.627136,505.222168 
z"/>
<path fill="#BEB9DC" opacity="1.000000" stroke="none" 
	d="
M686.076416,530.353027 
	C686.461182,529.864014 687.126404,529.496521 688.081421,529.223389 
	C687.699829,529.703308 687.028381,530.088928 686.076416,530.353027 
z"/>
<path fill="#5B4FA8" opacity="1.000000" stroke="none" 
	d="
M641.805664,588.041565 
	C641.614014,587.600159 641.531616,586.767212 641.734619,585.982666 
	C641.984985,586.570740 641.949890,587.110352 641.805664,588.041565 
z"/>
<path fill="#BEB9DC" opacity="1.000000" stroke="none" 
	d="
M723.364746,495.025330 
	C723.444153,494.402405 723.820740,493.705750 724.517212,492.968140 
	C724.445374,493.601990 724.053589,494.276794 723.364746,495.025330 
z"/>
<path fill="#BEB9DC" opacity="1.000000" stroke="none" 
	d="
M669.692383,548.292297 
	C669.538025,547.670654 669.650879,546.886536 670.046997,545.959106 
	C670.206665,546.587097 670.083130,547.358521 669.692383,548.292297 
z"/>
<path fill="#BEB9DC" opacity="1.000000" stroke="none" 
	d="
M674.296753,542.977905 
	C674.378296,542.278198 674.777161,541.600586 675.490112,540.906067 
	C675.407471,541.592773 675.010742,542.296387 674.296753,542.977905 
z"/>
<path fill="#BEB9DC" opacity="1.000000" stroke="none" 
	d="
M685.484375,532.106201 
	C685.547058,531.813110 685.533936,531.893311 685.498535,531.872986 
	C685.818970,532.260010 686.174683,532.667419 686.530396,533.074829 
	C686.294922,533.218811 686.059509,533.362793 685.824097,533.506836 
	C685.689941,533.137695 685.555847,532.768555 685.484375,532.106201 
z"/>
<path fill="#2E1E90" opacity="1.000000" stroke="none" 
	d="
M497.451416,517.778625 
	C497.423859,515.863953 497.396301,513.949219 497.737366,511.458801 
	C498.234253,509.792969 498.362488,508.702850 498.490753,507.612762 
	C498.691772,506.965363 498.892761,506.317963 499.320679,505.176514 
	C499.601105,503.836151 499.654694,502.989899 499.708252,502.143616 
	C500.062714,501.855225 500.417206,501.566833 501.355286,501.220886 
	C503.015930,500.319794 504.093018,499.476227 505.699768,498.217834 
	C503.768463,497.481750 502.778290,497.104370 501.788086,496.726990 
	C501.893158,496.095459 501.998230,495.463867 502.641327,494.473969 
	C503.581116,493.315094 503.982819,492.514587 504.384521,491.714050 
	C503.583374,491.848816 502.782227,491.983551 501.981079,492.118286 
	C501.540009,492.197327 501.098907,492.276337 500.187378,491.922485 
	C499.600342,491.183441 499.483826,490.877228 499.367279,490.571045 
	C500.621948,488.659088 501.876617,486.747131 503.611755,484.390930 
	C504.808716,480.819519 505.525177,477.692352 506.241608,474.565186 
	C506.280823,474.202026 506.320068,473.838867 506.802307,473.243805 
	C507.778839,473.055389 508.312378,473.098877 509.228180,473.203003 
	C513.971008,469.675873 514.167358,464.814270 514.550598,459.165466 
	C511.933655,461.654877 510.042969,463.453491 507.804749,465.229462 
	C506.777588,465.068298 506.097961,464.929749 505.418274,464.791199 
	C505.400482,464.147369 505.382690,463.503571 505.713318,462.406097 
	C506.079285,460.637970 506.096802,459.323486 506.114319,458.009003 
	C506.209198,457.315002 506.304108,456.620972 506.804535,455.475891 
	C508.212372,453.690063 509.214691,452.355255 510.216980,451.020447 
	C510.158325,449.365173 510.099670,447.709869 509.900635,445.202820 
	C509.649445,443.094452 509.538696,441.837921 509.427917,440.581360 
	C510.259155,439.616089 511.090393,438.650818 512.380615,437.351318 
	C512.979004,436.019409 513.118408,435.021698 513.257874,434.024017 
	C513.318848,433.626038 513.379883,433.228088 513.803040,432.391602 
	C514.164246,430.639801 514.163330,429.326477 514.162415,428.013184 
	C514.173340,427.500763 514.184326,426.988373 514.430054,425.866760 
	C514.565857,424.191681 514.466980,423.125793 514.368042,422.059875 
	C514.296631,420.973145 514.225220,419.886414 514.393433,418.129578 
	C514.492920,415.646088 514.352661,413.832733 514.212402,412.019379 
	C514.190491,411.567657 514.168579,411.115906 514.376709,410.034851 
	C514.467896,406.942444 514.329102,404.479370 514.190308,402.016327 
	C514.222839,401.611176 514.255432,401.206024 514.635071,400.401825 
	C515.034729,399.005646 515.087341,398.008514 515.140015,397.011383 
	C516.106812,395.242157 517.188416,393.522919 517.990051,391.681793 
	C518.368835,390.811890 518.211243,389.708466 518.075806,388.155334 
	C517.615234,386.736694 517.375610,385.873596 517.135864,385.010468 
	C517.195679,383.995483 517.255493,382.980530 517.677612,381.460266 
	C518.071289,379.640259 518.102478,378.325531 518.133728,377.010803 
	C518.221619,376.314697 518.309570,375.618622 518.800476,374.402893 
	C519.618652,371.456940 520.033936,369.030548 520.449219,366.604187 
	C521.064331,365.289185 521.679504,363.974182 522.780273,362.276642 
	C522.679871,360.520386 522.093933,359.146667 521.507996,357.772949 
	C521.830200,356.633820 522.152344,355.494690 523.145935,354.155884 
	C526.401428,349.688385 526.880127,345.306610 524.530945,340.771790 
	C524.462830,339.504608 524.394714,338.237457 524.684814,336.462708 
	C525.086060,334.641571 525.129089,333.327942 525.172180,332.014343 
	C525.213135,331.610413 525.254150,331.206512 525.658203,330.382019 
	C526.076111,328.646179 526.130920,327.330902 526.185730,326.015656 
	C526.234619,325.613922 526.283508,325.212158 526.739990,324.316895 
	C527.170837,321.399841 527.194092,318.976349 527.217407,316.552826 
	C531.523804,309.583984 538.507568,306.877045 545.911865,304.931976 
	C561.839600,300.747803 577.806946,296.713104 593.715088,292.456543 
	C598.352356,291.215790 602.848206,289.443176 607.398254,287.883270 
	C608.014465,287.671967 608.556030,287.035461 609.152954,287.005127 
	C625.173706,286.191071 641.194946,284.858856 657.220947,284.792236 
	C682.619385,284.686615 707.386902,288.615234 730.157532,300.656738 
	C736.117004,303.808228 741.454346,308.258636 746.735657,312.534515 
	C751.600525,316.473206 753.930481,321.863678 754.338989,328.238586 
	C755.162109,341.082336 753.637939,353.485931 748.547424,365.390594 
	C746.468079,370.253174 744.970825,375.397522 742.551331,380.073547 
	C739.395508,386.172699 735.368469,391.817902 732.140442,397.884155 
	C730.207153,401.517365 729.357483,405.737457 724.385986,406.735657 
	C723.720093,406.869385 723.443420,408.683624 722.883484,409.660645 
	C721.945679,411.296814 720.925049,412.885559 719.939087,414.494141 
	C718.368530,417.056519 716.828552,419.638428 715.210876,422.170685 
	C714.621155,423.093719 713.926453,423.984467 713.128845,424.728333 
	C712.544495,425.273285 711.125732,425.498413 711.081604,425.961609 
	C710.377563,433.351074 703.514343,433.785156 698.609375,436.646393 
	C702.492310,442.747681 696.861084,443.917786 694.000244,446.599670 
	C692.470520,448.033661 691.139954,449.698090 689.839050,451.352478 
	C688.711060,452.786835 687.963684,454.570099 686.682617,455.826477 
	C678.730103,463.625397 671.932800,472.767456 661.524902,477.749268 
	C660.462708,483.412964 655.185181,485.407501 651.573730,488.668121 
	C640.989990,498.223694 629.956421,507.279541 619.171204,516.614502 
	C616.920166,518.562927 615.047729,520.942383 612.873352,522.987671 
	C611.015869,524.734924 608.975525,526.287659 607.196533,527.775452 
	C606.222656,527.125183 605.759583,526.987732 605.704956,526.754456 
	C604.359192,521.013977 599.893555,519.141235 595.065735,516.623535 
	C575.188293,506.257965 565.254700,509.908142 548.790283,524.453491 
	C545.594666,527.276611 547.838867,530.123718 549.602966,532.376709 
	C552.674316,536.299133 556.174133,539.887512 559.518311,543.594299 
	C562.257385,546.630371 565.149963,549.538879 567.720215,552.710083 
	C568.531982,553.711609 569.138794,555.616150 568.729065,556.679504 
	C568.246155,557.932556 566.583130,558.753357 565.384277,559.701538 
	C564.214661,560.626587 562.895691,561.378052 561.800537,562.378906 
	C559.459106,564.518616 557.302917,566.865051 554.918091,568.952332 
	C551.846619,571.640564 548.625427,574.157776 545.352966,576.843689 
	C542.827209,574.034363 540.870056,574.492859 539.426575,577.849976 
	C539.103027,578.602539 538.720154,579.461914 538.105408,579.936646 
	C531.065430,585.374023 524.205811,591.092041 516.820618,596.019653 
	C511.560486,599.529419 504.271973,599.279175 500.096100,605.403809 
	C498.797058,607.309143 495.054626,607.513916 492.469086,608.589233 
	C490.861359,609.257874 489.325562,610.099548 487.341034,610.543762 
	C486.677490,608.821167 486.430389,607.418274 486.183289,606.015442 
	C486.250336,605.317261 486.317383,604.619080 486.745850,603.436646 
	C487.118500,601.638672 487.129730,600.324829 487.140930,599.011047 
	C487.170532,598.605042 487.200165,598.199036 487.686768,597.444214 
	C489.351227,596.550964 490.846832,596.263977 491.653198,595.361267 
	C492.103149,594.857605 491.653595,593.199951 491.172821,592.293945 
	C490.364563,590.770935 489.208252,589.432556 488.198364,588.016541 
	C488.266998,587.319336 488.335602,586.622192 488.766632,585.440552 
	C489.153900,583.643188 489.178741,582.330261 489.203552,581.017334 
	C489.239105,580.614807 489.274658,580.212341 489.687012,579.394104 
	C491.289124,578.045105 492.514465,577.111816 494.525543,575.580017 
	C492.684235,574.891479 491.471100,574.437866 490.257965,573.984192 
	C490.279449,573.587952 490.300964,573.191772 490.678314,572.372559 
	C491.058899,570.635803 491.083649,569.321960 491.108398,568.008118 
	C491.176025,567.306763 491.243622,566.605408 491.706543,565.392212 
	C492.167236,563.775879 492.232635,562.671326 492.298096,561.566833 
	C493.092987,560.562805 493.887848,559.558777 495.263306,558.236816 
	C495.647522,555.897522 495.451141,553.876038 495.254761,551.854553 
	C494.882568,551.448547 494.510345,551.042480 494.025482,549.987915 
	C494.036255,547.410583 494.159668,545.481750 494.283142,543.552979 
	C494.283142,543.552979 494.469177,543.117310 494.984039,542.987244 
	C497.445343,544.809753 499.391754,546.762390 501.434723,548.811829 
	C505.541626,545.330811 505.726501,539.740967 501.612396,537.285034 
	C501.745209,535.001404 501.862061,532.992798 502.336243,530.915649 
	C506.548218,528.668762 507.319885,525.784851 504.718231,523.280457 
	C503.350372,522.894470 501.982513,522.508423 500.620117,521.462585 
	C499.567505,519.794678 498.509460,518.786682 497.451416,517.778625 
z"/>
<path fill="#5549A5" opacity="1.000000" stroke="none" 
	d="
M686.378296,516.070190 
	C684.163513,519.248535 682.359985,522.367371 680.195190,526.110840 
	C678.588562,524.618103 677.461121,523.570557 675.991211,522.204834 
	C677.599670,521.043030 678.852173,520.138367 680.486694,518.957764 
	C677.928528,515.858398 679.434631,513.861450 682.264160,512.010193 
	C684.737000,510.392273 686.858887,508.237213 689.334534,506.624451 
	C690.303650,505.993134 691.814209,506.192902 693.078186,506.014160 
	C692.706787,507.236359 692.633667,508.702637 691.885681,509.616669 
	C691.023621,510.670105 689.565674,511.235931 688.030884,512.231201 
	C689.705627,512.949158 690.910828,513.465820 692.116028,513.982483 
	C692.112976,514.365417 692.109985,514.748291 692.106934,515.131226 
	C690.334412,515.424316 688.561951,515.717468 686.378296,516.070190 
z"/>
<path fill="#5548A4" opacity="1.000000" stroke="none" 
	d="
M468.424316,708.038391 
	C467.451904,710.070312 466.709686,712.045288 465.333221,713.352356 
	C464.336609,714.298889 462.498749,714.359497 460.514740,713.818542 
	C459.328430,715.075928 458.142120,716.333252 456.768860,717.788757 
	C455.499237,708.795959 456.621155,706.616394 462.337402,707.611938 
	C461.588104,705.591980 460.939453,703.843384 460.290802,702.094727 
	C460.579193,701.806641 460.867554,701.518494 461.155914,701.230347 
	C463.564911,703.385376 465.973907,705.540405 468.424316,708.038391 
z"/>
<path fill="#5549A5" opacity="1.000000" stroke="none" 
	d="
M694.086670,501.431824 
	C699.803894,497.268646 705.398865,493.463928 711.551147,489.280212 
	C711.683472,490.778442 712.010620,491.694244 711.747620,491.918762 
	C707.059509,495.920532 702.358643,499.915924 697.454834,503.641968 
	C697.014587,503.976501 695.161438,502.451630 694.086670,501.431824 
z"/>
<path fill="#594CA6" opacity="1.000000" stroke="none" 
	d="
M595.584839,284.293152 
	C601.231384,282.127075 606.567200,280.038635 612.048401,278.452881 
	C614.181396,277.835815 616.642273,278.352051 618.953735,278.352051 
	C619.013855,278.823761 619.073975,279.295471 619.134155,279.767212 
	C612.195374,281.822937 605.275024,283.946503 598.293030,285.842896 
	C597.481018,286.063416 596.327393,285.025970 595.584839,284.293152 
z"/>
<path fill="#8278BC" opacity="1.000000" stroke="none" 
	d="
M501.978882,530.984131 
	C501.862061,532.992798 501.745209,535.001404 501.612396,537.285034 
	C505.726501,539.740967 505.541626,545.330811 501.434723,548.811829 
	C499.391754,546.762390 497.445343,544.809753 495.116455,542.790833 
	C496.778625,539.173584 498.823273,535.622742 500.874329,531.603821 
	C500.880768,531.135803 501.125641,530.893250 501.349854,530.933838 
	C501.574036,530.974487 502.026672,531.026917 502.015167,531.015747 
	C502.003662,531.004517 501.978912,530.984131 501.978882,530.984131 
z"/>
<path fill="#5244A3" opacity="1.000000" stroke="none" 
	d="
M739.975342,449.748840 
	C743.424500,446.594238 747.015320,443.777863 751.082031,440.588226 
	C750.927185,443.373962 750.814026,445.408997 750.676086,447.891052 
	C747.386108,448.771851 744.773926,453.618591 739.975342,449.748840 
z"/>
<path fill="#5B4FA8" opacity="1.000000" stroke="none" 
	d="
M539.866150,629.223267 
	C543.168396,627.494446 546.949585,626.802063 549.474365,624.641479 
	C551.757263,622.687744 553.122742,620.955261 556.027771,623.108704 
	C552.502502,628.384460 543.803772,631.813293 539.866150,629.223267 
z"/>
<path fill="#5D51A8" opacity="1.000000" stroke="none" 
	d="
M444.968140,342.117401 
	C441.104736,343.986572 437.524445,345.650055 433.005890,347.749481 
	C434.610443,341.827972 439.357635,339.578186 446.928284,340.001251 
	C446.231110,340.795441 445.741180,341.353577 444.968140,342.117401 
z"/>
<path fill="#6256AB" opacity="1.000000" stroke="none" 
	d="
M715.049072,486.833801 
	C712.922180,485.669250 713.511353,479.679688 715.830688,478.622772 
	C717.835266,477.709229 720.104431,477.376373 723.272949,476.508423 
	C720.139526,480.492371 717.726501,483.560394 715.049072,486.833801 
z"/>
<path fill="#695DAF" opacity="1.000000" stroke="none" 
	d="
M464.259583,687.291382 
	C464.810944,686.303040 465.253754,685.696411 465.696594,685.089783 
	C466.156464,685.199280 466.616364,685.308777 467.076233,685.418213 
	C466.478149,689.681885 465.880066,693.945557 465.281982,698.209229 
	C464.728882,698.173645 464.175812,698.138000 463.622711,698.102417 
	C461.047363,694.685181 461.543457,691.201904 464.259583,687.291382 
z"/>
<path fill="#5D51A8" opacity="1.000000" stroke="none" 
	d="
M624.520996,539.433105 
	C626.582764,536.903564 628.686584,534.777344 630.790466,532.651123 
	C631.071411,532.861877 631.352356,533.072632 631.633301,533.283386 
	C630.899292,535.930542 630.419678,538.692139 629.305847,541.168457 
	C628.861816,542.155762 627.016541,542.512878 625.809143,543.156860 
	C625.393799,542.050049 624.978455,540.943176 624.520996,539.433105 
z"/>
<path fill="#6C61B0" opacity="1.000000" stroke="none" 
	d="
M549.552002,296.198792 
	C547.575806,296.693481 545.994690,297.134674 544.398010,297.509857 
	C544.179138,297.561310 543.883179,297.284546 543.256531,295.881500 
	C548.272644,294.399689 553.288757,292.917877 558.304810,291.436066 
	C558.555237,292.298706 558.805664,293.161316 559.056091,294.023926 
	C556.018127,294.724091 552.980103,295.424255 549.552002,296.198792 
z"/>
<path fill="#483B9E" opacity="1.000000" stroke="none" 
	d="
M558.652710,280.914276 
	C561.921326,279.224396 565.552673,277.681366 569.566772,275.975708 
	C569.396606,282.647186 568.842590,283.019867 563.874878,281.533844 
	C562.344849,281.076172 560.640137,281.202301 558.652710,280.914276 
z"/>
<path fill="#796FB7" opacity="1.000000" stroke="none" 
	d="
M417.095032,353.326111 
	C418.449219,353.049164 419.856537,353.130676 421.263824,353.212158 
	C421.415436,353.931274 421.567047,354.650421 421.718628,355.369537 
	C418.503448,357.392090 415.288269,359.414642 412.073090,361.437195 
	C411.809113,361.025787 411.545135,360.614380 411.281158,360.202972 
	C413.236816,358.030151 415.192474,355.857330 417.095032,353.326111 
z"/>
<path fill="#7065B3" opacity="1.000000" stroke="none" 
	d="
M454.605164,753.596680 
	C455.829681,750.160278 456.879608,746.999207 457.929535,743.838074 
	C458.817078,744.121216 459.704651,744.404358 460.592194,744.687500 
	C459.638000,747.710449 458.798431,750.780334 457.601166,753.703735 
	C457.429688,754.122437 455.530273,753.833435 454.605164,753.596680 
z"/>
<path fill="#695DAF" opacity="1.000000" stroke="none" 
	d="
M632.398804,275.929596 
	C634.906128,275.317200 637.348328,274.832397 639.760193,274.953308 
	C640.389099,274.984802 640.923401,276.903564 641.050232,278.413513 
	C638.314880,276.113251 634.067810,281.285156 632.398804,275.929596 
z"/>
<path fill="#7469B5" opacity="1.000000" stroke="none" 
	d="
M633.744690,565.393982 
	C632.621643,560.616089 634.254089,557.996399 640.128113,556.971436 
	C638.089355,559.721863 636.050659,562.472290 633.744690,565.393982 
z"/>
<path fill="#8278BC" opacity="1.000000" stroke="none" 
	d="
M487.935242,588.321899 
	C489.208252,589.432556 490.364563,590.770935 491.172821,592.293945 
	C491.653595,593.199951 492.103149,594.857605 491.653198,595.361267 
	C490.846832,596.263977 489.351227,596.550964 487.754761,597.146118 
	C487.467926,594.340393 487.570038,591.483765 487.935242,588.321899 
z"/>
<path fill="#7469B5" opacity="1.000000" stroke="none" 
	d="
M562.618896,291.809326 
	C565.525085,289.729736 568.759583,287.839294 571.994019,285.948822 
	C572.294006,286.491058 572.593933,287.033264 572.893860,287.575470 
	C570.940552,291.436951 566.539795,291.009552 562.618896,291.809326 
z"/>
<path fill="#9087C4" opacity="1.000000" stroke="none" 
	d="
M725.576294,446.715363 
	C723.713623,448.467712 722.072266,449.957703 720.430969,451.447662 
	C719.945068,450.942657 719.459106,450.437653 718.973145,449.932648 
	C720.761841,448.086487 722.282776,445.793427 724.413025,444.517517 
	C726.625244,443.192474 727.029419,444.549774 725.576294,446.715363 
z"/>
<path fill="#8278BC" opacity="1.000000" stroke="none" 
	d="
M524.351196,341.212982 
	C526.880127,345.306610 526.401428,349.688385 523.448181,354.008118 
	C523.443237,349.924744 523.807373,345.789459 524.351196,341.212982 
z"/>
<path fill="#8278BC" opacity="1.000000" stroke="none" 
	d="
M504.781494,523.655640 
	C507.319885,525.784851 506.548218,528.668762 502.336243,530.915649 
	C501.978912,530.984131 502.003662,531.004517 501.993805,530.791321 
	C501.697845,530.683167 501.411743,530.788208 501.125641,530.893250 
	C501.125641,530.893250 500.880768,531.135803 500.760803,531.260376 
	C501.005676,530.347412 501.277344,528.463257 501.750580,528.411133 
	C504.631653,528.094177 505.217590,526.477844 504.781494,523.655640 
z"/>
<path fill="#8278BC" opacity="1.000000" stroke="none" 
	d="
M501.806030,496.782074 
	C502.778290,497.104370 503.768463,497.481750 505.699768,498.217834 
	C504.093018,499.476227 503.015930,500.319794 501.575562,501.146637 
	C500.797760,499.704559 496.317444,499.591431 500.346191,497.117889 
	C501.211304,497.177460 501.575287,497.012939 501.939240,496.848419 
	C501.939240,496.848419 501.823944,496.837158 501.806030,496.782074 
z"/>
<path fill="#8278BC" opacity="1.000000" stroke="none" 
	d="
M489.986908,574.265137 
	C491.471100,574.437866 492.684235,574.891479 494.525543,575.580017 
	C492.514465,577.111816 491.289124,578.045105 489.764526,579.100708 
	C489.548798,577.664062 489.632324,576.105042 489.986908,574.265137 
z"/>
<path fill="#8278BC" opacity="1.000000" stroke="none" 
	d="
M513.984924,422.133972 
	C514.466980,423.125793 514.565857,424.191681 514.480835,425.485596 
	C513.037476,425.713623 511.778015,425.713623 510.518494,425.713623 
	C510.320343,425.279877 510.122162,424.846100 509.924011,424.412354 
	C511.149933,423.677612 512.375854,422.942841 513.984924,422.133972 
z"/>
<path fill="#8278BC" opacity="1.000000" stroke="none" 
	d="
M506.007324,474.812378 
	C505.525177,477.692352 504.808716,480.819519 503.776733,484.085327 
	C504.231842,481.169189 505.002441,478.114380 506.007324,474.812378 
z"/>
<path fill="#8278BC" opacity="1.000000" stroke="none" 
	d="
M513.935242,402.300232 
	C514.329102,404.479370 514.467896,406.942444 514.369019,409.695679 
	C513.980957,407.518646 513.830566,405.051422 513.935242,402.300232 
z"/>
<path fill="#8278BC" opacity="1.000000" stroke="none" 
	d="
M526.966309,316.827850 
	C527.194092,318.976349 527.170837,321.399841 526.828613,324.026031 
	C526.578186,321.853424 526.646667,319.478149 526.966309,316.827850 
z"/>
<path fill="#8278BC" opacity="1.000000" stroke="none" 
	d="
M520.177429,366.825806 
	C520.033936,369.030548 519.618652,371.456940 518.912292,374.069824 
	C519.049316,371.853394 519.477478,369.450439 520.177429,366.825806 
z"/>
<path fill="#8278BC" opacity="1.000000" stroke="none" 
	d="
M513.948242,412.264862 
	C514.352661,413.832733 514.492920,415.646088 514.397949,417.721069 
	C514.003174,416.158569 513.843689,414.334473 513.948242,412.264862 
z"/>
<path fill="#8278BC" opacity="1.000000" stroke="none" 
	d="
M509.908264,451.188171 
	C509.214691,452.355255 508.212372,453.690063 506.931152,455.148560 
	C507.634705,453.966827 508.617126,452.661346 509.908264,451.188171 
z"/>
<path fill="#8278BC" opacity="1.000000" stroke="none" 
	d="
M495.210327,552.300049 
	C495.451141,553.876038 495.647522,555.897522 495.501526,558.009888 
	C495.161407,556.315735 495.163666,554.530640 495.210327,552.300049 
z"/>
<path fill="#8278BC" opacity="1.000000" stroke="none" 
	d="
M494.021851,543.751709 
	C494.159668,545.481750 494.036255,547.410583 493.865845,549.763245 
	C493.799438,548.108215 493.780029,546.029297 494.021851,543.751709 
z"/>
<path fill="#8278BC" opacity="1.000000" stroke="none" 
	d="
M521.308289,358.155548 
	C522.093933,359.146667 522.679871,360.520386 522.979614,361.970245 
	C522.165100,360.876984 521.636841,359.707550 521.308289,358.155548 
z"/>
<path fill="#8278BC" opacity="1.000000" stroke="none" 
	d="
M485.931580,606.271851 
	C486.430389,607.418274 486.677490,608.821167 486.973480,610.595825 
	C486.574890,609.487854 486.127380,608.008057 485.931580,606.271851 
z"/>
<path fill="#8278BC" opacity="1.000000" stroke="none" 
	d="
M508.845947,473.142395 
	C508.312378,473.098877 507.778839,473.055389 506.845276,472.973206 
	C506.352570,472.065796 506.259796,471.197144 506.705505,470.151489 
	C507.918488,470.213989 508.592987,470.453461 509.200684,470.994629 
	C509.037872,471.911682 508.941925,472.527039 508.845947,473.142395 
z"/>
<path fill="#8278BC" opacity="1.000000" stroke="none" 
	d="
M497.313477,518.071045 
	C498.509460,518.786682 499.567505,519.794678 500.449677,521.122986 
	C499.241058,520.416687 498.208313,519.390076 497.313477,518.071045 
z"/>
<path fill="#8278BC" opacity="1.000000" stroke="none" 
	d="
M505.278656,465.130768 
	C506.097961,464.929749 506.777588,465.068298 507.819702,465.461548 
	C508.220551,466.174988 508.258942,466.633698 507.971497,467.282532 
	C507.178955,467.645233 506.712280,467.817780 506.245575,467.990326 
	C505.876709,467.150330 505.507874,466.310364 505.278656,465.130768 
z"/>
<path fill="#8278BC" opacity="1.000000" stroke="none" 
	d="
M490.848389,568.277771 
	C491.083649,569.321960 491.058899,570.635803 490.754913,572.084106 
	C490.513214,570.994873 490.550812,569.771179 490.848389,568.277771 
z"/>
<path fill="#8278BC" opacity="1.000000" stroke="none" 
	d="
M524.910156,332.283539 
	C525.129089,333.327942 525.086060,334.641571 524.767029,336.089050 
	C524.543335,334.999542 524.595703,333.776154 524.910156,332.283539 
z"/>
<path fill="#8278BC" opacity="1.000000" stroke="none" 
	d="
M517.872314,377.279999 
	C518.102478,378.325531 518.071289,379.640259 517.762451,381.088379 
	C517.526917,379.997589 517.568909,378.773376 517.872314,377.279999 
z"/>
<path fill="#8278BC" opacity="1.000000" stroke="none" 
	d="
M486.885071,599.286926 
	C487.129730,600.324829 487.118500,601.638672 486.838470,603.098022 
	C486.589508,602.016602 486.609344,600.789734 486.885071,599.286926 
z"/>
<path fill="#8278BC" opacity="1.000000" stroke="none" 
	d="
M525.923889,326.283234 
	C526.130920,327.330902 526.076111,328.646179 525.740662,330.088470 
	C525.527405,328.993958 525.594727,327.772369 525.923889,326.283234 
z"/>
<path fill="#8278BC" opacity="1.000000" stroke="none" 
	d="
M488.942566,581.289795 
	C489.178741,582.330261 489.153900,583.643188 488.863647,585.103516 
	C488.626007,584.021362 488.653809,582.791870 488.942566,581.289795 
z"/>
<path fill="#2E1E90" opacity="1.000000" stroke="none" 
	d="
M506.277222,468.289734 
	C506.712280,467.817780 507.178955,467.645233 508.324890,467.483948 
	C509.091949,468.561127 509.179718,469.627045 509.267517,470.692932 
	C508.592987,470.453461 507.918488,470.213989 506.902008,469.870148 
	C506.476318,469.373566 506.392578,468.981384 506.277222,468.289734 
z"/>
<path fill="#8278BC" opacity="1.000000" stroke="none" 
	d="
M502.064331,492.483582 
	C502.782227,491.983551 503.583374,491.848816 504.384521,491.714050 
	C503.982819,492.514587 503.581116,493.315094 502.893860,494.195679 
	C502.454742,493.800140 502.301178,493.324524 502.064331,492.483582 
z"/>
<path fill="#8278BC" opacity="1.000000" stroke="none" 
	d="
M505.851807,458.278809 
	C506.096802,459.323486 506.079285,460.637970 505.787231,462.090607 
	C505.538208,461.002045 505.563721,459.775299 505.851807,458.278809 
z"/>
<path fill="#8278BC" opacity="1.000000" stroke="none" 
	d="
M513.903015,428.290771 
	C514.163330,429.326477 514.164246,430.639801 513.902466,432.105988 
	C513.640991,431.028717 513.642334,429.798553 513.903015,428.290771 
z"/>
<path fill="#8278BC" opacity="1.000000" stroke="none" 
	d="
M509.148438,440.758911 
	C509.538696,441.837921 509.649445,443.094452 509.723816,444.825256 
	C509.414612,443.845154 509.141785,442.390778 509.148438,440.758911 
z"/>
<path fill="#8278BC" opacity="1.000000" stroke="none" 
	d="
M499.389709,502.203979 
	C499.654694,502.989899 499.601105,503.836151 499.333557,504.835449 
	C499.103394,504.080444 499.087280,503.172363 499.389709,502.203979 
z"/>
<path fill="#8278BC" opacity="1.000000" stroke="none" 
	d="
M498.197845,507.798279 
	C498.362488,508.702850 498.234253,509.792969 497.811523,511.055176 
	C497.646362,510.146118 497.775665,509.064972 498.197845,507.798279 
z"/>
<path fill="#8278BC" opacity="1.000000" stroke="none" 
	d="
M512.986938,434.245850 
	C513.118408,435.021698 512.979004,436.019409 512.553345,437.083801 
	C512.416748,436.256256 512.566345,435.361969 512.986938,434.245850 
z"/>
<path fill="#8278BC" opacity="1.000000" stroke="none" 
	d="
M514.871887,397.246399 
	C515.087341,398.008514 515.034729,399.005646 514.714417,400.106995 
	C514.499084,399.301270 514.551453,398.391357 514.871887,397.246399 
z"/>
<path fill="#8278BC" opacity="1.000000" stroke="none" 
	d="
M492.043945,561.788330 
	C492.232635,562.671326 492.167236,563.775879 491.795776,565.051025 
	C491.589783,564.151123 491.689789,563.080505 492.043945,561.788330 
z"/>
<path fill="#8278BC" opacity="1.000000" stroke="none" 
	d="
M516.917358,385.202728 
	C517.375610,385.873596 517.615234,386.736694 517.772644,387.947144 
	C517.359863,387.327972 517.029358,386.361481 516.917358,385.202728 
z"/>
<path fill="#8278BC" opacity="1.000000" stroke="none" 
	d="
M499.113983,490.681396 
	C499.483826,490.877228 499.600342,491.183441 499.853577,491.961823 
	C499.470581,492.447632 498.950867,492.461273 498.431213,492.474915 
	C498.574371,491.913849 498.717529,491.352783 499.113983,490.681396 
z"/>
<path fill="#2E1E90" opacity="1.000000" stroke="none" 
	d="
M501.556274,496.597046 
	C501.575287,497.012939 501.211304,497.177460 500.651581,497.128723 
	C500.694977,496.725525 500.934113,496.535583 501.556274,496.597046 
z"/>
<path fill="#BEB9DC" opacity="1.000000" stroke="none" 
	d="
M509.200684,470.994629 
	C509.179718,469.627045 509.091949,468.561127 508.650757,467.293823 
	C508.258942,466.633698 508.220551,466.174988 508.167175,465.484192 
	C510.042969,463.453491 511.933655,461.654877 514.550598,459.165466 
	C514.167358,464.814270 513.971008,469.675873 509.228180,473.203033 
	C508.941925,472.527039 509.037872,471.911682 509.200684,470.994629 
z"/>
<path fill="#2E1E90" opacity="1.000000" stroke="none" 
	d="
M501.349854,530.933838 
	C501.411743,530.788208 501.697845,530.683167 502.005310,530.802490 
	C502.026672,531.026917 501.574036,530.974487 501.349854,530.933838 
z"/>
</svg>